G04 #@! TF.GenerationSoftware,KiCad,Pcbnew,(6.0.10)*
G04 #@! TF.CreationDate,2023-01-07T11:35:55+08:00*
G04 #@! TF.ProjectId,LM317 Power Supply,4c4d3331-3720-4506-9f77-657220537570,V01*
G04 #@! TF.SameCoordinates,Original*
G04 #@! TF.FileFunction,Legend,Top*
G04 #@! TF.FilePolarity,Positive*
%FSLAX46Y46*%
G04 Gerber Fmt 4.6, Leading zero omitted, Abs format (unit mm)*
G04 Created by KiCad (PCBNEW (6.0.10)) date 2023-01-07 11:35:55*
%MOMM*%
%LPD*%
G01*
G04 APERTURE LIST*
%ADD10C,0.150000*%
%ADD11C,0.127000*%
%ADD12C,0.200000*%
%ADD13C,0.120000*%
G04 APERTURE END LIST*
D10*
X139731904Y-84780380D02*
X139731904Y-83780380D01*
X140112857Y-83780380D01*
X140208095Y-83828000D01*
X140255714Y-83875619D01*
X140303333Y-83970857D01*
X140303333Y-84113714D01*
X140255714Y-84208952D01*
X140208095Y-84256571D01*
X140112857Y-84304190D01*
X139731904Y-84304190D01*
X141208095Y-84780380D02*
X140731904Y-84780380D01*
X140731904Y-83780380D01*
X141541428Y-84780380D02*
X141541428Y-83780380D01*
X141874761Y-84494666D01*
X142208095Y-83780380D01*
X142208095Y-84780380D01*
X152821047Y-96337428D02*
X153582952Y-96337428D01*
X153202000Y-96718380D02*
X153202000Y-95956476D01*
X142153047Y-93289428D02*
X142914952Y-93289428D01*
X142534000Y-93670380D02*
X142534000Y-92908476D01*
X151503523Y-81065714D02*
X151741619Y-81732380D01*
X151979714Y-81065714D01*
X152551142Y-80732380D02*
X152646380Y-80732380D01*
X152741619Y-80780000D01*
X152789238Y-80827619D01*
X152836857Y-80922857D01*
X152884476Y-81113333D01*
X152884476Y-81351428D01*
X152836857Y-81541904D01*
X152789238Y-81637142D01*
X152741619Y-81684761D01*
X152646380Y-81732380D01*
X152551142Y-81732380D01*
X152455904Y-81684761D01*
X152408285Y-81637142D01*
X152360666Y-81541904D01*
X152313047Y-81351428D01*
X152313047Y-81113333D01*
X152360666Y-80922857D01*
X152408285Y-80827619D01*
X152455904Y-80780000D01*
X152551142Y-80732380D01*
X153217809Y-80732380D02*
X153836857Y-80732380D01*
X153503523Y-81113333D01*
X153646380Y-81113333D01*
X153741619Y-81160952D01*
X153789238Y-81208571D01*
X153836857Y-81303809D01*
X153836857Y-81541904D01*
X153789238Y-81637142D01*
X153741619Y-81684761D01*
X153646380Y-81732380D01*
X153360666Y-81732380D01*
X153265428Y-81684761D01*
X153217809Y-81637142D01*
X154490051Y-81280000D02*
G75*
G03*
X154490051Y-81280000I-1796051J0D01*
G01*
X132160666Y-81854523D02*
X131684476Y-81854523D01*
X131684476Y-80584523D01*
X132494000Y-81854523D02*
X132494000Y-80584523D01*
X132827333Y-81491666D01*
X133160666Y-80584523D01*
X133160666Y-81854523D01*
X133541619Y-80584523D02*
X134160666Y-80584523D01*
X133827333Y-81068333D01*
X133970190Y-81068333D01*
X134065428Y-81128809D01*
X134113047Y-81189285D01*
X134160666Y-81310238D01*
X134160666Y-81612619D01*
X134113047Y-81733571D01*
X134065428Y-81794047D01*
X133970190Y-81854523D01*
X133684476Y-81854523D01*
X133589238Y-81794047D01*
X133541619Y-81733571D01*
X135113047Y-81854523D02*
X134541619Y-81854523D01*
X134827333Y-81854523D02*
X134827333Y-80584523D01*
X134732095Y-80765952D01*
X134636857Y-80886904D01*
X134541619Y-80947380D01*
X135446380Y-80584523D02*
X136113047Y-80584523D01*
X135684476Y-81854523D01*
X137255904Y-81854523D02*
X137255904Y-80584523D01*
X137636857Y-80584523D01*
X137732095Y-80645000D01*
X137779714Y-80705476D01*
X137827333Y-80826428D01*
X137827333Y-81007857D01*
X137779714Y-81128809D01*
X137732095Y-81189285D01*
X137636857Y-81249761D01*
X137255904Y-81249761D01*
X138446380Y-80584523D02*
X138636857Y-80584523D01*
X138732095Y-80645000D01*
X138827333Y-80765952D01*
X138874952Y-81007857D01*
X138874952Y-81431190D01*
X138827333Y-81673095D01*
X138732095Y-81794047D01*
X138636857Y-81854523D01*
X138446380Y-81854523D01*
X138351142Y-81794047D01*
X138255904Y-81673095D01*
X138208285Y-81431190D01*
X138208285Y-81007857D01*
X138255904Y-80765952D01*
X138351142Y-80645000D01*
X138446380Y-80584523D01*
X139208285Y-80584523D02*
X139446380Y-81854523D01*
X139636857Y-80947380D01*
X139827333Y-81854523D01*
X140065428Y-80584523D01*
X140446380Y-81189285D02*
X140779714Y-81189285D01*
X140922571Y-81854523D02*
X140446380Y-81854523D01*
X140446380Y-80584523D01*
X140922571Y-80584523D01*
X141922571Y-81854523D02*
X141589238Y-81249761D01*
X141351142Y-81854523D02*
X141351142Y-80584523D01*
X141732095Y-80584523D01*
X141827333Y-80645000D01*
X141874952Y-80705476D01*
X141922571Y-80826428D01*
X141922571Y-81007857D01*
X141874952Y-81128809D01*
X141827333Y-81189285D01*
X141732095Y-81249761D01*
X141351142Y-81249761D01*
X143065428Y-81794047D02*
X143208285Y-81854523D01*
X143446380Y-81854523D01*
X143541619Y-81794047D01*
X143589238Y-81733571D01*
X143636857Y-81612619D01*
X143636857Y-81491666D01*
X143589238Y-81370714D01*
X143541619Y-81310238D01*
X143446380Y-81249761D01*
X143255904Y-81189285D01*
X143160666Y-81128809D01*
X143113047Y-81068333D01*
X143065428Y-80947380D01*
X143065428Y-80826428D01*
X143113047Y-80705476D01*
X143160666Y-80645000D01*
X143255904Y-80584523D01*
X143494000Y-80584523D01*
X143636857Y-80645000D01*
X144065428Y-80584523D02*
X144065428Y-81612619D01*
X144113047Y-81733571D01*
X144160666Y-81794047D01*
X144255904Y-81854523D01*
X144446380Y-81854523D01*
X144541619Y-81794047D01*
X144589238Y-81733571D01*
X144636857Y-81612619D01*
X144636857Y-80584523D01*
X145113047Y-81854523D02*
X145113047Y-80584523D01*
X145494000Y-80584523D01*
X145589238Y-80645000D01*
X145636857Y-80705476D01*
X145684476Y-80826428D01*
X145684476Y-81007857D01*
X145636857Y-81128809D01*
X145589238Y-81189285D01*
X145494000Y-81249761D01*
X145113047Y-81249761D01*
X146113047Y-81854523D02*
X146113047Y-80584523D01*
X146494000Y-80584523D01*
X146589238Y-80645000D01*
X146636857Y-80705476D01*
X146684476Y-80826428D01*
X146684476Y-81007857D01*
X146636857Y-81128809D01*
X146589238Y-81189285D01*
X146494000Y-81249761D01*
X146113047Y-81249761D01*
X147589238Y-81854523D02*
X147113047Y-81854523D01*
X147113047Y-80584523D01*
X148113047Y-81249761D02*
X148113047Y-81854523D01*
X147779714Y-80584523D02*
X148113047Y-81249761D01*
X148446380Y-80584523D01*
G04 #@! TO.C,REF4*
X165870380Y-115108380D02*
X165537047Y-114632190D01*
X165298952Y-115108380D02*
X165298952Y-114108380D01*
X165679904Y-114108380D01*
X165775142Y-114156000D01*
X165822761Y-114203619D01*
X165870380Y-114298857D01*
X165870380Y-114441714D01*
X165822761Y-114536952D01*
X165775142Y-114584571D01*
X165679904Y-114632190D01*
X165298952Y-114632190D01*
X166298952Y-114584571D02*
X166632285Y-114584571D01*
X166775142Y-115108380D02*
X166298952Y-115108380D01*
X166298952Y-114108380D01*
X166775142Y-114108380D01*
X167537047Y-114584571D02*
X167203714Y-114584571D01*
X167203714Y-115108380D02*
X167203714Y-114108380D01*
X167679904Y-114108380D01*
X168489428Y-114441714D02*
X168489428Y-115108380D01*
X168251333Y-114060761D02*
X168013238Y-114775047D01*
X168632285Y-114775047D01*
G04 #@! TO.C,REF3*
X116340380Y-115108380D02*
X116007047Y-114632190D01*
X115768952Y-115108380D02*
X115768952Y-114108380D01*
X116149904Y-114108380D01*
X116245142Y-114156000D01*
X116292761Y-114203619D01*
X116340380Y-114298857D01*
X116340380Y-114441714D01*
X116292761Y-114536952D01*
X116245142Y-114584571D01*
X116149904Y-114632190D01*
X115768952Y-114632190D01*
X116768952Y-114584571D02*
X117102285Y-114584571D01*
X117245142Y-115108380D02*
X116768952Y-115108380D01*
X116768952Y-114108380D01*
X117245142Y-114108380D01*
X118007047Y-114584571D02*
X117673714Y-114584571D01*
X117673714Y-115108380D02*
X117673714Y-114108380D01*
X118149904Y-114108380D01*
X118435619Y-114108380D02*
X119054666Y-114108380D01*
X118721333Y-114489333D01*
X118864190Y-114489333D01*
X118959428Y-114536952D01*
X119007047Y-114584571D01*
X119054666Y-114679809D01*
X119054666Y-114917904D01*
X119007047Y-115013142D01*
X118959428Y-115060761D01*
X118864190Y-115108380D01*
X118578476Y-115108380D01*
X118483238Y-115060761D01*
X118435619Y-115013142D01*
G04 #@! TO.C,REF1*
X120404380Y-79192380D02*
X120071047Y-78716190D01*
X119832952Y-79192380D02*
X119832952Y-78192380D01*
X120213904Y-78192380D01*
X120309142Y-78240000D01*
X120356761Y-78287619D01*
X120404380Y-78382857D01*
X120404380Y-78525714D01*
X120356761Y-78620952D01*
X120309142Y-78668571D01*
X120213904Y-78716190D01*
X119832952Y-78716190D01*
X120832952Y-78668571D02*
X121166285Y-78668571D01*
X121309142Y-79192380D02*
X120832952Y-79192380D01*
X120832952Y-78192380D01*
X121309142Y-78192380D01*
X122071047Y-78668571D02*
X121737714Y-78668571D01*
X121737714Y-79192380D02*
X121737714Y-78192380D01*
X122213904Y-78192380D01*
X123118666Y-79192380D02*
X122547238Y-79192380D01*
X122832952Y-79192380D02*
X122832952Y-78192380D01*
X122737714Y-78335238D01*
X122642476Y-78430476D01*
X122547238Y-78478095D01*
G04 #@! TO.C,REF2*
X161552380Y-79700380D02*
X161219047Y-79224190D01*
X160980952Y-79700380D02*
X160980952Y-78700380D01*
X161361904Y-78700380D01*
X161457142Y-78748000D01*
X161504761Y-78795619D01*
X161552380Y-78890857D01*
X161552380Y-79033714D01*
X161504761Y-79128952D01*
X161457142Y-79176571D01*
X161361904Y-79224190D01*
X160980952Y-79224190D01*
X161980952Y-79176571D02*
X162314285Y-79176571D01*
X162457142Y-79700380D02*
X161980952Y-79700380D01*
X161980952Y-78700380D01*
X162457142Y-78700380D01*
X163219047Y-79176571D02*
X162885714Y-79176571D01*
X162885714Y-79700380D02*
X162885714Y-78700380D01*
X163361904Y-78700380D01*
X163695238Y-78795619D02*
X163742857Y-78748000D01*
X163838095Y-78700380D01*
X164076190Y-78700380D01*
X164171428Y-78748000D01*
X164219047Y-78795619D01*
X164266666Y-78890857D01*
X164266666Y-78986095D01*
X164219047Y-79128952D01*
X163647619Y-79700380D01*
X164266666Y-79700380D01*
G04 #@! TO.C,VR1*
X159496666Y-86609333D02*
X159963333Y-88009333D01*
X160430000Y-86609333D01*
X161696666Y-88009333D02*
X161230000Y-87342666D01*
X160896666Y-88009333D02*
X160896666Y-86609333D01*
X161430000Y-86609333D01*
X161563333Y-86676000D01*
X161630000Y-86742666D01*
X161696666Y-86876000D01*
X161696666Y-87076000D01*
X161630000Y-87209333D01*
X161563333Y-87276000D01*
X161430000Y-87342666D01*
X160896666Y-87342666D01*
X163030000Y-88009333D02*
X162230000Y-88009333D01*
X162630000Y-88009333D02*
X162630000Y-86609333D01*
X162496666Y-86809333D01*
X162363333Y-86942666D01*
X162230000Y-87009333D01*
G04 #@! TO.C,C2*
X155845142Y-97448666D02*
X155892761Y-97496285D01*
X155940380Y-97639142D01*
X155940380Y-97734380D01*
X155892761Y-97877238D01*
X155797523Y-97972476D01*
X155702285Y-98020095D01*
X155511809Y-98067714D01*
X155368952Y-98067714D01*
X155178476Y-98020095D01*
X155083238Y-97972476D01*
X154988000Y-97877238D01*
X154940380Y-97734380D01*
X154940380Y-97639142D01*
X154988000Y-97496285D01*
X155035619Y-97448666D01*
X155035619Y-97067714D02*
X154988000Y-97020095D01*
X154940380Y-96924857D01*
X154940380Y-96686761D01*
X154988000Y-96591523D01*
X155035619Y-96543904D01*
X155130857Y-96496285D01*
X155226095Y-96496285D01*
X155368952Y-96543904D01*
X155940380Y-97115333D01*
X155940380Y-96496285D01*
G04 #@! TO.C,RV1*
X149050761Y-104592380D02*
X148717428Y-104116190D01*
X148479333Y-104592380D02*
X148479333Y-103592380D01*
X148860285Y-103592380D01*
X148955523Y-103640000D01*
X149003142Y-103687619D01*
X149050761Y-103782857D01*
X149050761Y-103925714D01*
X149003142Y-104020952D01*
X148955523Y-104068571D01*
X148860285Y-104116190D01*
X148479333Y-104116190D01*
X149336476Y-103592380D02*
X149669809Y-104592380D01*
X150003142Y-103592380D01*
X150860285Y-104592380D02*
X150288857Y-104592380D01*
X150574571Y-104592380D02*
X150574571Y-103592380D01*
X150479333Y-103735238D01*
X150384095Y-103830476D01*
X150288857Y-103878095D01*
G04 #@! TO.C,R1*
X151003333Y-88448380D02*
X150670000Y-87972190D01*
X150431904Y-88448380D02*
X150431904Y-87448380D01*
X150812857Y-87448380D01*
X150908095Y-87496000D01*
X150955714Y-87543619D01*
X151003333Y-87638857D01*
X151003333Y-87781714D01*
X150955714Y-87876952D01*
X150908095Y-87924571D01*
X150812857Y-87972190D01*
X150431904Y-87972190D01*
X151955714Y-88448380D02*
X151384285Y-88448380D01*
X151670000Y-88448380D02*
X151670000Y-87448380D01*
X151574761Y-87591238D01*
X151479523Y-87686476D01*
X151384285Y-87734095D01*
G04 #@! TO.C,J2*
X152868666Y-103592380D02*
X152868666Y-104306666D01*
X152821047Y-104449523D01*
X152725809Y-104544761D01*
X152582952Y-104592380D01*
X152487714Y-104592380D01*
X153297238Y-103687619D02*
X153344857Y-103640000D01*
X153440095Y-103592380D01*
X153678190Y-103592380D01*
X153773428Y-103640000D01*
X153821047Y-103687619D01*
X153868666Y-103782857D01*
X153868666Y-103878095D01*
X153821047Y-104020952D01*
X153249619Y-104592380D01*
X153868666Y-104592380D01*
G04 #@! TO.C,J1*
X131786666Y-103846380D02*
X131786666Y-104560666D01*
X131739047Y-104703523D01*
X131643809Y-104798761D01*
X131500952Y-104846380D01*
X131405714Y-104846380D01*
X132786666Y-104846380D02*
X132215238Y-104846380D01*
X132500952Y-104846380D02*
X132500952Y-103846380D01*
X132405714Y-103989238D01*
X132310476Y-104084476D01*
X132215238Y-104132095D01*
G04 #@! TO.C,D4*
X133080380Y-101830095D02*
X132080380Y-101830095D01*
X132080380Y-101592000D01*
X132128000Y-101449142D01*
X132223238Y-101353904D01*
X132318476Y-101306285D01*
X132508952Y-101258666D01*
X132651809Y-101258666D01*
X132842285Y-101306285D01*
X132937523Y-101353904D01*
X133032761Y-101449142D01*
X133080380Y-101592000D01*
X133080380Y-101830095D01*
X132413714Y-100401523D02*
X133080380Y-100401523D01*
X132032761Y-100639619D02*
X132747047Y-100877714D01*
X132747047Y-100258666D01*
X120174095Y-99444380D02*
X120174095Y-98444380D01*
X120745523Y-99444380D02*
X120316952Y-98872952D01*
X120745523Y-98444380D02*
X120174095Y-99015809D01*
G04 #@! TO.C,D3*
X133334380Y-87352095D02*
X132334380Y-87352095D01*
X132334380Y-87114000D01*
X132382000Y-86971142D01*
X132477238Y-86875904D01*
X132572476Y-86828285D01*
X132762952Y-86780666D01*
X132905809Y-86780666D01*
X133096285Y-86828285D01*
X133191523Y-86875904D01*
X133286761Y-86971142D01*
X133334380Y-87114000D01*
X133334380Y-87352095D01*
X132334380Y-86447333D02*
X132334380Y-85828285D01*
X132715333Y-86161619D01*
X132715333Y-86018761D01*
X132762952Y-85923523D01*
X132810571Y-85875904D01*
X132905809Y-85828285D01*
X133143904Y-85828285D01*
X133239142Y-85875904D01*
X133286761Y-85923523D01*
X133334380Y-86018761D01*
X133334380Y-86304476D01*
X133286761Y-86399714D01*
X133239142Y-86447333D01*
X120174095Y-84966380D02*
X120174095Y-83966380D01*
X120745523Y-84966380D02*
X120316952Y-84394952D01*
X120745523Y-83966380D02*
X120174095Y-84537809D01*
G04 #@! TO.C,D2*
X133334380Y-97004095D02*
X132334380Y-97004095D01*
X132334380Y-96766000D01*
X132382000Y-96623142D01*
X132477238Y-96527904D01*
X132572476Y-96480285D01*
X132762952Y-96432666D01*
X132905809Y-96432666D01*
X133096285Y-96480285D01*
X133191523Y-96527904D01*
X133286761Y-96623142D01*
X133334380Y-96766000D01*
X133334380Y-97004095D01*
X132429619Y-96051714D02*
X132382000Y-96004095D01*
X132334380Y-95908857D01*
X132334380Y-95670761D01*
X132382000Y-95575523D01*
X132429619Y-95527904D01*
X132524857Y-95480285D01*
X132620095Y-95480285D01*
X132762952Y-95527904D01*
X133334380Y-96099333D01*
X133334380Y-95480285D01*
X130334095Y-98818380D02*
X130334095Y-97818380D01*
X130905523Y-98818380D02*
X130476952Y-98246952D01*
X130905523Y-97818380D02*
X130334095Y-98389809D01*
G04 #@! TO.C,D1*
X133334380Y-92178095D02*
X132334380Y-92178095D01*
X132334380Y-91940000D01*
X132382000Y-91797142D01*
X132477238Y-91701904D01*
X132572476Y-91654285D01*
X132762952Y-91606666D01*
X132905809Y-91606666D01*
X133096285Y-91654285D01*
X133191523Y-91701904D01*
X133286761Y-91797142D01*
X133334380Y-91940000D01*
X133334380Y-92178095D01*
X133334380Y-90654285D02*
X133334380Y-91225714D01*
X133334380Y-90940000D02*
X132334380Y-90940000D01*
X132477238Y-91035238D01*
X132572476Y-91130476D01*
X132620095Y-91225714D01*
X130334095Y-93992380D02*
X130334095Y-92992380D01*
X130905523Y-93992380D02*
X130476952Y-93420952D01*
X130905523Y-92992380D02*
X130334095Y-93563809D01*
G04 #@! TO.C,C1*
X148613142Y-95884666D02*
X148660761Y-95932285D01*
X148708380Y-96075142D01*
X148708380Y-96170380D01*
X148660761Y-96313238D01*
X148565523Y-96408476D01*
X148470285Y-96456095D01*
X148279809Y-96503714D01*
X148136952Y-96503714D01*
X147946476Y-96456095D01*
X147851238Y-96408476D01*
X147756000Y-96313238D01*
X147708380Y-96170380D01*
X147708380Y-96075142D01*
X147756000Y-95932285D01*
X147803619Y-95884666D01*
X148708380Y-94932285D02*
X148708380Y-95503714D01*
X148708380Y-95218000D02*
X147708380Y-95218000D01*
X147851238Y-95313238D01*
X147946476Y-95408476D01*
X147994095Y-95503714D01*
D11*
G04 #@! TO.C,VR1*
X163174000Y-88456000D02*
X158474000Y-88456000D01*
X158474000Y-88456000D02*
X158474000Y-98996000D01*
X158474000Y-98996000D02*
X163174000Y-98996000D01*
X163174000Y-98996000D02*
X163174000Y-88456000D01*
D12*
X157874000Y-91186000D02*
G75*
G03*
X157874000Y-91186000I-100000J0D01*
G01*
D13*
G04 #@! TO.C,C2*
X154298000Y-97266000D02*
G75*
G03*
X154298000Y-97266000I-2620000J0D01*
G01*
G04 #@! TO.C,RV1*
X151778000Y-102908000D02*
X133638000Y-102908000D01*
X151778000Y-102908000D02*
X151778000Y-113648000D01*
X133638000Y-102908000D02*
X133638000Y-113648000D01*
X151778000Y-113648000D02*
X133638000Y-113648000D01*
G04 #@! TO.C,R1*
X149250000Y-88996000D02*
X153090000Y-88996000D01*
X149250000Y-90836000D02*
X153090000Y-90836000D01*
D11*
G04 #@! TO.C,J2*
X164552000Y-110942000D02*
X154552000Y-110942000D01*
X154552000Y-110942000D02*
X154552000Y-103442000D01*
X154552000Y-103442000D02*
X164552000Y-103442000D01*
X164552000Y-103442000D02*
X164552000Y-110942000D01*
G04 #@! TO.C,J1*
X130770000Y-103696000D02*
X130770000Y-111196000D01*
X120770000Y-103696000D02*
X130770000Y-103696000D01*
X120770000Y-111196000D02*
X120770000Y-103696000D01*
X130770000Y-111196000D02*
X120770000Y-111196000D01*
D13*
G04 #@! TO.C,D4*
X123696000Y-99622000D02*
X123696000Y-102562000D01*
X123816000Y-99622000D02*
X123816000Y-102562000D01*
X122796000Y-102562000D02*
X128236000Y-102562000D01*
X129256000Y-101092000D02*
X128236000Y-101092000D01*
X122796000Y-99622000D02*
X122796000Y-102562000D01*
X123576000Y-99622000D02*
X123576000Y-102562000D01*
X128236000Y-102562000D02*
X128236000Y-99622000D01*
X121776000Y-101092000D02*
X122796000Y-101092000D01*
X128236000Y-99622000D02*
X122796000Y-99622000D01*
G04 #@! TO.C,D3*
X128236000Y-85144000D02*
X122796000Y-85144000D01*
X121776000Y-86614000D02*
X122796000Y-86614000D01*
X128236000Y-88084000D02*
X128236000Y-85144000D01*
X123576000Y-85144000D02*
X123576000Y-88084000D01*
X122796000Y-85144000D02*
X122796000Y-88084000D01*
X129256000Y-86614000D02*
X128236000Y-86614000D01*
X122796000Y-88084000D02*
X128236000Y-88084000D01*
X123816000Y-85144000D02*
X123816000Y-88084000D01*
X123696000Y-85144000D02*
X123696000Y-88084000D01*
G04 #@! TO.C,D2*
X122796000Y-97736000D02*
X128236000Y-97736000D01*
X129256000Y-96266000D02*
X128236000Y-96266000D01*
X122796000Y-94796000D02*
X122796000Y-97736000D01*
X127456000Y-97736000D02*
X127456000Y-94796000D01*
X128236000Y-97736000D02*
X128236000Y-94796000D01*
X121776000Y-96266000D02*
X122796000Y-96266000D01*
X128236000Y-94796000D02*
X122796000Y-94796000D01*
X127216000Y-97736000D02*
X127216000Y-94796000D01*
X127336000Y-97736000D02*
X127336000Y-94796000D01*
G04 #@! TO.C,D1*
X122796000Y-92910000D02*
X128236000Y-92910000D01*
X129256000Y-91440000D02*
X128236000Y-91440000D01*
X122796000Y-89970000D02*
X122796000Y-92910000D01*
X127456000Y-92910000D02*
X127456000Y-89970000D01*
X128236000Y-92910000D02*
X128236000Y-89970000D01*
X121776000Y-91440000D02*
X122796000Y-91440000D01*
X128236000Y-89970000D02*
X122796000Y-89970000D01*
X127216000Y-92910000D02*
X127216000Y-89970000D01*
X127336000Y-92910000D02*
X127336000Y-89970000D01*
G04 #@! TO.C,C1*
X147126000Y-95718000D02*
G75*
G03*
X147126000Y-95718000I-6370000J0D01*
G01*
G04 #@! TD*
M02*
