G04 #@! TF.GenerationSoftware,KiCad,Pcbnew,(6.0.10)*
G04 #@! TF.CreationDate,2023-01-07T11:35:55+08:00*
G04 #@! TF.ProjectId,LM317 Power Supply,4c4d3331-3720-4506-9f77-657220537570,V01*
G04 #@! TF.SameCoordinates,Original*
G04 #@! TF.FileFunction,Copper,L1,Top*
G04 #@! TF.FilePolarity,Positive*
%FSLAX46Y46*%
G04 Gerber Fmt 4.6, Leading zero omitted, Abs format (unit mm)*
G04 Created by KiCad (PCBNEW (6.0.10)) date 2023-01-07 11:35:55*
%MOMM*%
%LPD*%
G01*
G04 APERTURE LIST*
G04 #@! TA.AperFunction,ComponentPad*
%ADD10R,1.860000X1.860000*%
G04 #@! TD*
G04 #@! TA.AperFunction,ComponentPad*
%ADD11C,1.860000*%
G04 #@! TD*
G04 #@! TA.AperFunction,ComponentPad*
%ADD12C,1.600000*%
G04 #@! TD*
G04 #@! TA.AperFunction,ComponentPad*
%ADD13C,3.000000*%
G04 #@! TD*
G04 #@! TA.AperFunction,ComponentPad*
%ADD14R,3.000000X3.000000*%
G04 #@! TD*
G04 #@! TA.AperFunction,ComponentPad*
%ADD15O,1.400000X1.400000*%
G04 #@! TD*
G04 #@! TA.AperFunction,ComponentPad*
%ADD16C,1.400000*%
G04 #@! TD*
G04 #@! TA.AperFunction,ComponentPad*
%ADD17C,1.950000*%
G04 #@! TD*
G04 #@! TA.AperFunction,ComponentPad*
%ADD18R,2.200000X2.200000*%
G04 #@! TD*
G04 #@! TA.AperFunction,ComponentPad*
%ADD19O,2.200000X2.200000*%
G04 #@! TD*
G04 #@! TA.AperFunction,Conductor*
%ADD20C,1.270000*%
G04 #@! TD*
G04 APERTURE END LIST*
D10*
G04 #@! TO.P,VR1,1,ADJ*
G04 #@! TO.N,Net-(VR1-Pad1)*
X160314000Y-91186000D03*
D11*
G04 #@! TO.P,VR1,2,VOUT*
G04 #@! TO.N,Net-(VR1-Pad2)*
X160314000Y-93726000D03*
G04 #@! TO.P,VR1,3,VIN*
G04 #@! TO.N,Net-(D1-Pad1)*
X160314000Y-96266000D03*
G04 #@! TD*
D12*
G04 #@! TO.P,C2,2*
G04 #@! TO.N,Net-(C1-Pad2)*
X151678000Y-98266000D03*
G04 #@! TO.P,C2,1*
G04 #@! TO.N,Net-(VR1-Pad1)*
X151678000Y-96266000D03*
G04 #@! TD*
D13*
G04 #@! TO.P,RV1,3,3*
G04 #@! TO.N,Net-(VR1-Pad1)*
X147708000Y-109728000D03*
G04 #@! TO.P,RV1,2,2*
X142708000Y-109728000D03*
D14*
G04 #@! TO.P,RV1,1,1*
G04 #@! TO.N,Net-(C1-Pad2)*
X137708000Y-109728000D03*
G04 #@! TD*
D15*
G04 #@! TO.P,R1,2*
G04 #@! TO.N,Net-(VR1-Pad2)*
X153710000Y-89916000D03*
D16*
G04 #@! TO.P,R1,1*
G04 #@! TO.N,Net-(VR1-Pad1)*
X148630000Y-89916000D03*
G04 #@! TD*
D17*
G04 #@! TO.P,J2,1*
G04 #@! TO.N,Net-(VR1-Pad2)*
X162052000Y-107442000D03*
G04 #@! TO.P,J2,2*
G04 #@! TO.N,Net-(C1-Pad2)*
X157052000Y-107442000D03*
G04 #@! TD*
G04 #@! TO.P,J1,2*
G04 #@! TO.N,Net-(D2-Pad2)*
X123270000Y-107696000D03*
G04 #@! TO.P,J1,1*
G04 #@! TO.N,Net-(D1-Pad2)*
X128270000Y-107696000D03*
G04 #@! TD*
D18*
G04 #@! TO.P,D4,1,K*
G04 #@! TO.N,Net-(D2-Pad2)*
X120436000Y-101092000D03*
D19*
G04 #@! TO.P,D4,2,A*
G04 #@! TO.N,Net-(C1-Pad2)*
X130596000Y-101092000D03*
G04 #@! TD*
G04 #@! TO.P,D3,2,A*
G04 #@! TO.N,Net-(C1-Pad2)*
X130596000Y-86614000D03*
D18*
G04 #@! TO.P,D3,1,K*
G04 #@! TO.N,Net-(D1-Pad2)*
X120436000Y-86614000D03*
G04 #@! TD*
D19*
G04 #@! TO.P,D2,2,A*
G04 #@! TO.N,Net-(D2-Pad2)*
X120436000Y-96266000D03*
D18*
G04 #@! TO.P,D2,1,K*
G04 #@! TO.N,Net-(D1-Pad1)*
X130596000Y-96266000D03*
G04 #@! TD*
D19*
G04 #@! TO.P,D1,2,A*
G04 #@! TO.N,Net-(D1-Pad2)*
X120436000Y-91440000D03*
D18*
G04 #@! TO.P,D1,1,K*
G04 #@! TO.N,Net-(D1-Pad1)*
X130596000Y-91440000D03*
G04 #@! TD*
D12*
G04 #@! TO.P,C1,2*
G04 #@! TO.N,Net-(C1-Pad2)*
X140756000Y-98218000D03*
G04 #@! TO.P,C1,1*
G04 #@! TO.N,Net-(D1-Pad1)*
X140756000Y-93218000D03*
G04 #@! TD*
D20*
G04 #@! TO.N,Net-(D1-Pad1)*
X164084000Y-94742000D02*
X164084000Y-90170000D01*
X164084000Y-90170000D02*
X159512000Y-85598000D01*
X162560000Y-96266000D02*
X164084000Y-94742000D01*
X160314000Y-96266000D02*
X162560000Y-96266000D01*
G04 #@! TO.N,Net-(D1-Pad2)*
X123698000Y-98298000D02*
X123698000Y-91440000D01*
X128270000Y-102870000D02*
X123698000Y-98298000D01*
X128270000Y-105116000D02*
X128270000Y-102870000D01*
X123698000Y-91440000D02*
X120436000Y-91440000D01*
G04 #@! TO.N,Net-(C1-Pad2)*
X136398000Y-109728000D02*
X137708000Y-109728000D01*
X130556000Y-103886000D02*
X136398000Y-109728000D01*
X130596000Y-103846000D02*
X130556000Y-103886000D01*
X130596000Y-101092000D02*
X130596000Y-103846000D01*
G04 #@! TO.N,Net-(VR1-Pad1)*
X159512000Y-108458000D02*
X159512000Y-101854000D01*
X159512000Y-101854000D02*
X153924000Y-96266000D01*
X158242000Y-109728000D02*
X159512000Y-108458000D01*
X147708000Y-109728000D02*
X158242000Y-109728000D01*
X153924000Y-96266000D02*
X151678000Y-96266000D01*
G04 #@! TO.N,Net-(D1-Pad1)*
X149098000Y-85598000D02*
X159512000Y-85598000D01*
X143256000Y-91440000D02*
X149098000Y-85598000D01*
X130596000Y-91440000D02*
X143256000Y-91440000D01*
X137708000Y-96266000D02*
X140756000Y-93218000D01*
X130596000Y-96266000D02*
X137708000Y-96266000D01*
G04 #@! TO.N,Net-(VR1-Pad1)*
X150165000Y-88381000D02*
X148630000Y-89916000D01*
X157509000Y-88381000D02*
X150165000Y-88381000D01*
X160314000Y-91186000D02*
X157509000Y-88381000D01*
X148630000Y-89916000D02*
X148630000Y-96266000D01*
G04 #@! TO.N,Net-(VR1-Pad2)*
X162052000Y-107442000D02*
X162052000Y-101052000D01*
X162052000Y-101052000D02*
X157266000Y-96266000D01*
X157266000Y-96266000D02*
X157266000Y-93726000D01*
X157266000Y-93726000D02*
X160314000Y-93726000D01*
X154218000Y-93726000D02*
X157266000Y-93726000D01*
X153710000Y-93218000D02*
X154218000Y-93726000D01*
X153710000Y-89916000D02*
X153710000Y-93218000D01*
G04 #@! TO.N,Net-(VR1-Pad1)*
X151678000Y-96266000D02*
X148630000Y-96266000D01*
X147708000Y-109728000D02*
X142708000Y-109728000D01*
G04 #@! TO.N,Net-(C1-Pad2)*
X151678000Y-102068000D02*
X157052000Y-107442000D01*
X151678000Y-98266000D02*
X151678000Y-102068000D01*
X151630000Y-98218000D02*
X151678000Y-98266000D01*
X140756000Y-98218000D02*
X151630000Y-98218000D01*
X137882000Y-101092000D02*
X140756000Y-98218000D01*
X130596000Y-101092000D02*
X137882000Y-101092000D01*
G04 #@! TO.N,Net-(D2-Pad2)*
X123270000Y-103926000D02*
X120436000Y-101092000D01*
X123270000Y-107696000D02*
X123270000Y-103926000D01*
G04 #@! TO.N,Net-(C1-Pad2)*
X127802000Y-89408000D02*
X130596000Y-86614000D01*
X127802000Y-98298000D02*
X127802000Y-89408000D01*
X130596000Y-101092000D02*
X127802000Y-98298000D01*
G04 #@! TO.N,Net-(D1-Pad1)*
X130596000Y-96266000D02*
X130596000Y-91440000D01*
G04 #@! TO.N,Net-(D1-Pad2)*
X120436000Y-91440000D02*
X120436000Y-86614000D01*
X128270000Y-107696000D02*
X128270000Y-105116000D01*
G04 #@! TO.N,Net-(D2-Pad2)*
X120436000Y-96266000D02*
X120436000Y-101092000D01*
G04 #@! TD*
G04 #@! TA.AperFunction,NonConductor*
G36*
X140041786Y-92295502D02*
G01*
X140088279Y-92349158D01*
X140098383Y-92419432D01*
X140068889Y-92484012D01*
X140061497Y-92491221D01*
X140061806Y-92491537D01*
X140057401Y-92495851D01*
X140052600Y-92499711D01*
X139926480Y-92650016D01*
X139923516Y-92655408D01*
X139923513Y-92655412D01*
X139863542Y-92764500D01*
X139831956Y-92821954D01*
X139830095Y-92827821D01*
X139830094Y-92827823D01*
X139776888Y-92995548D01*
X139745881Y-93046544D01*
X137398829Y-95393595D01*
X137336517Y-95427621D01*
X137309734Y-95430500D01*
X132022500Y-95430500D01*
X131954379Y-95410498D01*
X131907886Y-95356842D01*
X131896500Y-95304500D01*
X131896500Y-95146252D01*
X131884867Y-95087769D01*
X131840552Y-95021448D01*
X131774231Y-94977133D01*
X131762062Y-94974712D01*
X131762061Y-94974712D01*
X131721816Y-94966707D01*
X131715748Y-94965500D01*
X131557500Y-94965500D01*
X131489379Y-94945498D01*
X131442886Y-94891842D01*
X131431500Y-94839500D01*
X131431500Y-92866500D01*
X131451502Y-92798379D01*
X131505158Y-92751886D01*
X131557500Y-92740500D01*
X131715748Y-92740500D01*
X131721816Y-92739293D01*
X131762061Y-92731288D01*
X131762062Y-92731288D01*
X131774231Y-92728867D01*
X131840552Y-92684552D01*
X131884867Y-92618231D01*
X131888891Y-92598004D01*
X131895293Y-92565816D01*
X131896500Y-92559748D01*
X131896500Y-92401500D01*
X131916502Y-92333379D01*
X131970158Y-92286886D01*
X132022500Y-92275500D01*
X139973665Y-92275500D01*
X140041786Y-92295502D01*
G37*
G04 #@! TD.AperFunction*
G04 #@! TA.AperFunction,NonConductor*
G36*
X170669121Y-77237002D02*
G01*
X170715614Y-77290658D01*
X170727000Y-77343000D01*
X170727000Y-121539000D01*
X170706998Y-121607121D01*
X170653342Y-121653614D01*
X170601000Y-121665000D01*
X113705000Y-121665000D01*
X113636879Y-121644998D01*
X113590386Y-121591342D01*
X113579000Y-121539000D01*
X113579000Y-117856000D01*
X116032341Y-117856000D01*
X116052937Y-118091408D01*
X116114097Y-118319663D01*
X116213965Y-118533829D01*
X116349505Y-118727401D01*
X116516599Y-118894495D01*
X116710171Y-119030035D01*
X116715149Y-119032356D01*
X116715152Y-119032358D01*
X116919355Y-119127580D01*
X116924337Y-119129903D01*
X116929645Y-119131325D01*
X116929647Y-119131326D01*
X117147277Y-119189639D01*
X117152592Y-119191063D01*
X117255682Y-119200082D01*
X117326310Y-119206262D01*
X117326317Y-119206262D01*
X117329034Y-119206500D01*
X117446966Y-119206500D01*
X117449683Y-119206262D01*
X117449690Y-119206262D01*
X117520318Y-119200082D01*
X117623408Y-119191063D01*
X117628723Y-119189639D01*
X117846353Y-119131326D01*
X117846355Y-119131325D01*
X117851663Y-119129903D01*
X117856645Y-119127580D01*
X118060848Y-119032358D01*
X118060851Y-119032356D01*
X118065829Y-119030035D01*
X118259401Y-118894495D01*
X118426495Y-118727401D01*
X118429655Y-118722889D01*
X118558878Y-118538339D01*
X118558881Y-118538334D01*
X118562035Y-118533830D01*
X118564358Y-118528848D01*
X118564361Y-118528843D01*
X118659580Y-118324645D01*
X118659581Y-118324644D01*
X118661903Y-118319663D01*
X118723063Y-118091408D01*
X118743659Y-117856000D01*
X165562341Y-117856000D01*
X165582937Y-118091408D01*
X165644097Y-118319663D01*
X165743965Y-118533829D01*
X165879505Y-118727401D01*
X166046599Y-118894495D01*
X166240171Y-119030035D01*
X166245149Y-119032356D01*
X166245152Y-119032358D01*
X166449355Y-119127580D01*
X166454337Y-119129903D01*
X166459645Y-119131325D01*
X166459647Y-119131326D01*
X166677277Y-119189639D01*
X166682592Y-119191063D01*
X166785682Y-119200082D01*
X166856310Y-119206262D01*
X166856317Y-119206262D01*
X166859034Y-119206500D01*
X166976966Y-119206500D01*
X166979683Y-119206262D01*
X166979690Y-119206262D01*
X167050318Y-119200082D01*
X167153408Y-119191063D01*
X167158723Y-119189639D01*
X167376353Y-119131326D01*
X167376355Y-119131325D01*
X167381663Y-119129903D01*
X167386645Y-119127580D01*
X167590848Y-119032358D01*
X167590851Y-119032356D01*
X167595829Y-119030035D01*
X167789401Y-118894495D01*
X167956495Y-118727401D01*
X167959655Y-118722889D01*
X168088878Y-118538339D01*
X168088881Y-118538334D01*
X168092035Y-118533830D01*
X168094358Y-118528848D01*
X168094361Y-118528843D01*
X168189580Y-118324645D01*
X168189581Y-118324644D01*
X168191903Y-118319663D01*
X168253063Y-118091408D01*
X168273659Y-117856000D01*
X168253063Y-117620592D01*
X168191903Y-117392337D01*
X168092035Y-117178171D01*
X167956495Y-116984599D01*
X167789401Y-116817505D01*
X167595829Y-116681965D01*
X167590851Y-116679644D01*
X167590848Y-116679642D01*
X167386645Y-116584420D01*
X167386643Y-116584419D01*
X167381663Y-116582097D01*
X167376355Y-116580675D01*
X167376353Y-116580674D01*
X167158723Y-116522361D01*
X167158722Y-116522361D01*
X167153408Y-116520937D01*
X167050318Y-116511918D01*
X166979690Y-116505738D01*
X166979683Y-116505738D01*
X166976966Y-116505500D01*
X166859034Y-116505500D01*
X166856317Y-116505738D01*
X166856310Y-116505738D01*
X166785682Y-116511918D01*
X166682592Y-116520937D01*
X166677278Y-116522361D01*
X166677277Y-116522361D01*
X166459647Y-116580674D01*
X166459645Y-116580675D01*
X166454337Y-116582097D01*
X166449357Y-116584419D01*
X166449355Y-116584420D01*
X166245152Y-116679642D01*
X166245149Y-116679644D01*
X166240171Y-116681965D01*
X166046599Y-116817505D01*
X165879505Y-116984599D01*
X165876348Y-116989107D01*
X165876346Y-116989110D01*
X165747122Y-117173661D01*
X165743965Y-117178170D01*
X165741642Y-117183152D01*
X165741639Y-117183157D01*
X165646420Y-117387355D01*
X165644097Y-117392337D01*
X165582937Y-117620592D01*
X165562341Y-117856000D01*
X118743659Y-117856000D01*
X118723063Y-117620592D01*
X118661903Y-117392337D01*
X118562035Y-117178171D01*
X118426495Y-116984599D01*
X118259401Y-116817505D01*
X118065829Y-116681965D01*
X118060851Y-116679644D01*
X118060848Y-116679642D01*
X117856645Y-116584420D01*
X117856643Y-116584419D01*
X117851663Y-116582097D01*
X117846355Y-116580675D01*
X117846353Y-116580674D01*
X117628723Y-116522361D01*
X117628722Y-116522361D01*
X117623408Y-116520937D01*
X117520318Y-116511918D01*
X117449690Y-116505738D01*
X117449683Y-116505738D01*
X117446966Y-116505500D01*
X117329034Y-116505500D01*
X117326317Y-116505738D01*
X117326310Y-116505738D01*
X117255682Y-116511918D01*
X117152592Y-116520937D01*
X117147278Y-116522361D01*
X117147277Y-116522361D01*
X116929647Y-116580674D01*
X116929645Y-116580675D01*
X116924337Y-116582097D01*
X116919357Y-116584419D01*
X116919355Y-116584420D01*
X116715152Y-116679642D01*
X116715149Y-116679644D01*
X116710171Y-116681965D01*
X116516599Y-116817505D01*
X116349505Y-116984599D01*
X116346348Y-116989107D01*
X116346346Y-116989110D01*
X116217122Y-117173661D01*
X116213965Y-117178170D01*
X116211642Y-117183152D01*
X116211639Y-117183157D01*
X116116420Y-117387355D01*
X116114097Y-117392337D01*
X116052937Y-117620592D01*
X116032341Y-117856000D01*
X113579000Y-117856000D01*
X113579000Y-96266000D01*
X119130532Y-96266000D01*
X119150365Y-96492692D01*
X119151789Y-96498005D01*
X119151789Y-96498007D01*
X119191172Y-96644985D01*
X119209261Y-96712496D01*
X119211583Y-96717476D01*
X119211584Y-96717478D01*
X119302607Y-96912675D01*
X119305432Y-96918734D01*
X119435953Y-97105139D01*
X119563595Y-97232781D01*
X119597621Y-97295093D01*
X119600500Y-97321876D01*
X119600500Y-99665500D01*
X119580498Y-99733621D01*
X119526842Y-99780114D01*
X119474500Y-99791500D01*
X119316252Y-99791500D01*
X119310184Y-99792707D01*
X119269939Y-99800712D01*
X119269938Y-99800712D01*
X119257769Y-99803133D01*
X119191448Y-99847448D01*
X119147133Y-99913769D01*
X119135500Y-99972252D01*
X119135500Y-102211748D01*
X119136707Y-102217816D01*
X119143560Y-102252266D01*
X119147133Y-102270231D01*
X119191448Y-102336552D01*
X119257769Y-102380867D01*
X119269938Y-102383288D01*
X119269939Y-102383288D01*
X119310184Y-102391293D01*
X119316252Y-102392500D01*
X120502735Y-102392500D01*
X120570856Y-102412502D01*
X120591830Y-102429405D01*
X122397595Y-104235171D01*
X122431621Y-104297483D01*
X122434500Y-104324266D01*
X122434500Y-106813256D01*
X122414498Y-106881377D01*
X122407452Y-106891259D01*
X122279919Y-107053034D01*
X122277228Y-107058150D01*
X122277226Y-107058152D01*
X122185435Y-107232618D01*
X122179327Y-107244228D01*
X122115262Y-107450553D01*
X122089869Y-107665097D01*
X122103998Y-107880677D01*
X122105420Y-107886275D01*
X122105420Y-107886277D01*
X122149990Y-108061768D01*
X122157178Y-108090071D01*
X122247626Y-108286268D01*
X122250959Y-108290984D01*
X122340534Y-108417730D01*
X122372313Y-108462697D01*
X122376455Y-108466732D01*
X122474851Y-108562585D01*
X122527065Y-108613449D01*
X122706697Y-108733475D01*
X122712000Y-108735753D01*
X122712003Y-108735755D01*
X122795561Y-108771654D01*
X122905194Y-108818756D01*
X122963132Y-108831866D01*
X123110272Y-108865161D01*
X123110278Y-108865162D01*
X123115909Y-108866436D01*
X123121680Y-108866663D01*
X123121682Y-108866663D01*
X123186653Y-108869216D01*
X123331784Y-108874918D01*
X123440147Y-108859206D01*
X123539870Y-108844748D01*
X123539875Y-108844747D01*
X123545591Y-108843918D01*
X123551063Y-108842060D01*
X123551065Y-108842060D01*
X123744703Y-108776328D01*
X123744705Y-108776327D01*
X123750167Y-108774473D01*
X123938663Y-108668911D01*
X123959349Y-108651707D01*
X124021714Y-108599838D01*
X124104765Y-108530765D01*
X124242911Y-108364663D01*
X124348473Y-108176167D01*
X124352398Y-108164606D01*
X124416060Y-107977065D01*
X124416060Y-107977063D01*
X124417918Y-107971591D01*
X124418747Y-107965875D01*
X124418748Y-107965870D01*
X124448385Y-107761458D01*
X124448918Y-107757784D01*
X124450536Y-107696000D01*
X124432874Y-107503784D01*
X124431297Y-107486618D01*
X124431296Y-107486615D01*
X124430768Y-107480864D01*
X124411397Y-107412179D01*
X124373693Y-107278493D01*
X124373692Y-107278491D01*
X124372125Y-107272934D01*
X124360690Y-107249745D01*
X124279127Y-107084353D01*
X124276572Y-107079172D01*
X124147309Y-106906067D01*
X124143063Y-106902142D01*
X124139203Y-106897855D01*
X124140889Y-106896337D01*
X124109524Y-106843894D01*
X124105500Y-106812306D01*
X124105500Y-103966431D01*
X124105942Y-103955888D01*
X124107276Y-103940003D01*
X124110176Y-103905466D01*
X124099721Y-103827116D01*
X124099356Y-103824096D01*
X124094432Y-103778763D01*
X124090822Y-103745531D01*
X124088648Y-103739070D01*
X124088068Y-103736433D01*
X124087979Y-103735932D01*
X124087857Y-103735405D01*
X124087706Y-103734886D01*
X124087070Y-103732296D01*
X124086167Y-103725530D01*
X124061518Y-103657807D01*
X124059148Y-103651294D01*
X124058130Y-103648389D01*
X124035097Y-103579948D01*
X124032921Y-103573481D01*
X124029404Y-103567627D01*
X124028282Y-103565199D01*
X124028080Y-103564709D01*
X124027855Y-103564237D01*
X124027603Y-103563775D01*
X124026415Y-103561361D01*
X124024080Y-103554946D01*
X123981736Y-103488222D01*
X123980127Y-103485618D01*
X123942941Y-103423731D01*
X123939425Y-103417879D01*
X123934733Y-103412918D01*
X123933122Y-103410795D01*
X123932497Y-103409896D01*
X123929582Y-103406041D01*
X123926811Y-103401675D01*
X123923098Y-103397522D01*
X123870552Y-103344976D01*
X123868099Y-103342454D01*
X123819386Y-103290941D01*
X123819384Y-103290939D01*
X123814697Y-103285983D01*
X123809056Y-103282149D01*
X123803969Y-103277820D01*
X123796539Y-103270963D01*
X121773405Y-101247829D01*
X121739379Y-101185517D01*
X121736500Y-101158734D01*
X121736500Y-99972252D01*
X121724867Y-99913769D01*
X121680552Y-99847448D01*
X121614231Y-99803133D01*
X121602062Y-99800712D01*
X121602061Y-99800712D01*
X121561816Y-99792707D01*
X121555748Y-99791500D01*
X121397500Y-99791500D01*
X121329379Y-99771498D01*
X121282886Y-99717842D01*
X121271500Y-99665500D01*
X121271500Y-97321876D01*
X121291502Y-97253755D01*
X121308405Y-97232781D01*
X121436047Y-97105139D01*
X121566568Y-96918734D01*
X121569394Y-96912675D01*
X121660416Y-96717478D01*
X121660417Y-96717476D01*
X121662739Y-96712496D01*
X121680829Y-96644985D01*
X121720211Y-96498007D01*
X121720211Y-96498005D01*
X121721635Y-96492692D01*
X121741468Y-96266000D01*
X121721635Y-96039308D01*
X121667439Y-95837044D01*
X121664162Y-95824814D01*
X121664161Y-95824812D01*
X121662739Y-95819504D01*
X121582601Y-95647648D01*
X121568891Y-95618247D01*
X121568889Y-95618244D01*
X121566568Y-95613266D01*
X121436047Y-95426861D01*
X121275139Y-95265953D01*
X121088734Y-95135432D01*
X121083756Y-95133111D01*
X121083753Y-95133109D01*
X120887478Y-95041584D01*
X120887476Y-95041583D01*
X120882496Y-95039261D01*
X120877188Y-95037839D01*
X120877186Y-95037838D01*
X120668007Y-94981789D01*
X120668005Y-94981789D01*
X120662692Y-94980365D01*
X120436000Y-94960532D01*
X120209308Y-94980365D01*
X120203995Y-94981789D01*
X120203993Y-94981789D01*
X119994814Y-95037838D01*
X119994812Y-95037839D01*
X119989504Y-95039261D01*
X119984524Y-95041583D01*
X119984522Y-95041584D01*
X119788247Y-95133109D01*
X119788244Y-95133111D01*
X119783266Y-95135432D01*
X119596861Y-95265953D01*
X119435953Y-95426861D01*
X119305432Y-95613266D01*
X119303111Y-95618244D01*
X119303109Y-95618247D01*
X119289399Y-95647648D01*
X119209261Y-95819504D01*
X119207839Y-95824812D01*
X119207838Y-95824814D01*
X119204561Y-95837044D01*
X119150365Y-96039308D01*
X119130532Y-96266000D01*
X113579000Y-96266000D01*
X113579000Y-91440000D01*
X119130532Y-91440000D01*
X119150365Y-91666692D01*
X119209261Y-91886496D01*
X119211583Y-91891476D01*
X119211584Y-91891478D01*
X119280524Y-92039318D01*
X119305432Y-92092734D01*
X119435953Y-92279139D01*
X119596861Y-92440047D01*
X119783266Y-92570568D01*
X119788244Y-92572889D01*
X119788247Y-92572891D01*
X119978597Y-92661653D01*
X119989504Y-92666739D01*
X119994812Y-92668161D01*
X119994814Y-92668162D01*
X120203993Y-92724211D01*
X120203995Y-92724211D01*
X120209308Y-92725635D01*
X120436000Y-92745468D01*
X120662692Y-92725635D01*
X120668005Y-92724211D01*
X120668007Y-92724211D01*
X120877186Y-92668162D01*
X120877188Y-92668161D01*
X120882496Y-92666739D01*
X120893403Y-92661653D01*
X121083753Y-92572891D01*
X121083756Y-92572889D01*
X121088734Y-92570568D01*
X121275139Y-92440047D01*
X121402781Y-92312405D01*
X121465093Y-92278379D01*
X121491876Y-92275500D01*
X122736500Y-92275500D01*
X122804621Y-92295502D01*
X122851114Y-92349158D01*
X122862500Y-92401500D01*
X122862500Y-98257569D01*
X122862058Y-98268111D01*
X122857824Y-98318534D01*
X122858726Y-98325294D01*
X122868274Y-98396845D01*
X122868640Y-98399874D01*
X122877178Y-98478469D01*
X122879352Y-98484930D01*
X122879932Y-98487567D01*
X122880020Y-98488068D01*
X122880144Y-98488598D01*
X122880293Y-98489112D01*
X122880931Y-98491708D01*
X122881833Y-98498470D01*
X122884166Y-98504880D01*
X122908857Y-98572720D01*
X122909874Y-98575624D01*
X122935079Y-98650519D01*
X122938594Y-98656369D01*
X122939716Y-98658797D01*
X122939918Y-98659287D01*
X122940152Y-98659777D01*
X122940401Y-98660235D01*
X122941585Y-98662641D01*
X122943919Y-98669054D01*
X122947575Y-98674814D01*
X122947575Y-98674815D01*
X122986276Y-98735797D01*
X122987894Y-98738417D01*
X123028575Y-98806121D01*
X123033267Y-98811082D01*
X123034878Y-98813205D01*
X123035500Y-98814099D01*
X123038412Y-98817949D01*
X123041189Y-98822325D01*
X123044902Y-98826477D01*
X123046132Y-98827707D01*
X123097431Y-98879007D01*
X123099882Y-98881527D01*
X123153303Y-98938017D01*
X123158953Y-98941856D01*
X123164027Y-98946175D01*
X123171462Y-98953037D01*
X127397595Y-103179171D01*
X127431621Y-103241483D01*
X127434500Y-103268266D01*
X127434500Y-106813256D01*
X127414498Y-106881377D01*
X127407452Y-106891259D01*
X127279919Y-107053034D01*
X127277228Y-107058150D01*
X127277226Y-107058152D01*
X127185435Y-107232618D01*
X127179327Y-107244228D01*
X127115262Y-107450553D01*
X127089869Y-107665097D01*
X127103998Y-107880677D01*
X127105420Y-107886275D01*
X127105420Y-107886277D01*
X127149990Y-108061768D01*
X127157178Y-108090071D01*
X127247626Y-108286268D01*
X127250959Y-108290984D01*
X127340534Y-108417730D01*
X127372313Y-108462697D01*
X127376455Y-108466732D01*
X127474851Y-108562585D01*
X127527065Y-108613449D01*
X127706697Y-108733475D01*
X127712000Y-108735753D01*
X127712003Y-108735755D01*
X127795561Y-108771654D01*
X127905194Y-108818756D01*
X127963132Y-108831866D01*
X128110272Y-108865161D01*
X128110278Y-108865162D01*
X128115909Y-108866436D01*
X128121680Y-108866663D01*
X128121682Y-108866663D01*
X128186653Y-108869216D01*
X128331784Y-108874918D01*
X128440147Y-108859206D01*
X128539870Y-108844748D01*
X128539875Y-108844747D01*
X128545591Y-108843918D01*
X128551063Y-108842060D01*
X128551065Y-108842060D01*
X128744703Y-108776328D01*
X128744705Y-108776327D01*
X128750167Y-108774473D01*
X128938663Y-108668911D01*
X128959349Y-108651707D01*
X129021714Y-108599838D01*
X129104765Y-108530765D01*
X129242911Y-108364663D01*
X129348473Y-108176167D01*
X129352398Y-108164606D01*
X129416060Y-107977065D01*
X129416060Y-107977063D01*
X129417918Y-107971591D01*
X129418747Y-107965875D01*
X129418748Y-107965870D01*
X129448385Y-107761458D01*
X129448918Y-107757784D01*
X129450536Y-107696000D01*
X129432874Y-107503784D01*
X129431297Y-107486618D01*
X129431296Y-107486615D01*
X129430768Y-107480864D01*
X129411397Y-107412179D01*
X129373693Y-107278493D01*
X129373692Y-107278491D01*
X129372125Y-107272934D01*
X129360690Y-107249745D01*
X129279127Y-107084353D01*
X129276572Y-107079172D01*
X129147309Y-106906067D01*
X129143063Y-106902142D01*
X129139203Y-106897855D01*
X129140889Y-106896337D01*
X129109524Y-106843894D01*
X129105500Y-106812306D01*
X129105500Y-102910431D01*
X129105942Y-102899888D01*
X129109605Y-102856264D01*
X129110176Y-102849466D01*
X129099721Y-102771116D01*
X129099356Y-102768096D01*
X129090822Y-102689531D01*
X129088648Y-102683070D01*
X129088068Y-102680433D01*
X129087979Y-102679930D01*
X129087857Y-102679406D01*
X129087706Y-102678886D01*
X129087070Y-102676296D01*
X129086167Y-102669530D01*
X129083832Y-102663114D01*
X129059148Y-102595294D01*
X129058130Y-102592389D01*
X129035097Y-102523948D01*
X129032921Y-102517481D01*
X129029404Y-102511627D01*
X129028282Y-102509199D01*
X129028080Y-102508709D01*
X129027855Y-102508237D01*
X129027603Y-102507775D01*
X129026415Y-102505361D01*
X129024080Y-102498946D01*
X128981736Y-102432222D01*
X128980127Y-102429618D01*
X128974660Y-102420519D01*
X128939425Y-102361879D01*
X128934733Y-102356918D01*
X128933122Y-102354795D01*
X128932497Y-102353896D01*
X128929582Y-102350041D01*
X128926811Y-102345675D01*
X128923098Y-102341522D01*
X128870552Y-102288976D01*
X128868099Y-102286454D01*
X128819386Y-102234941D01*
X128819384Y-102234939D01*
X128814697Y-102229983D01*
X128809056Y-102226149D01*
X128803969Y-102221820D01*
X128796539Y-102214963D01*
X124900110Y-98318534D01*
X126961824Y-98318534D01*
X126962726Y-98325294D01*
X126972274Y-98396845D01*
X126972640Y-98399874D01*
X126981178Y-98478469D01*
X126983352Y-98484930D01*
X126983932Y-98487567D01*
X126984020Y-98488068D01*
X126984144Y-98488598D01*
X126984293Y-98489112D01*
X126984931Y-98491708D01*
X126985833Y-98498470D01*
X126988166Y-98504880D01*
X127012857Y-98572720D01*
X127013874Y-98575624D01*
X127039079Y-98650519D01*
X127042594Y-98656369D01*
X127043716Y-98658797D01*
X127043918Y-98659287D01*
X127044152Y-98659777D01*
X127044401Y-98660235D01*
X127045585Y-98662641D01*
X127047919Y-98669054D01*
X127051575Y-98674814D01*
X127051575Y-98674815D01*
X127090276Y-98735797D01*
X127091894Y-98738417D01*
X127132575Y-98806121D01*
X127137267Y-98811082D01*
X127138878Y-98813205D01*
X127139500Y-98814099D01*
X127142414Y-98817952D01*
X127145189Y-98822325D01*
X127148902Y-98826477D01*
X127201430Y-98879005D01*
X127203882Y-98881526D01*
X127257303Y-98938017D01*
X127262951Y-98941855D01*
X127268030Y-98946178D01*
X127275462Y-98953037D01*
X129258952Y-100936527D01*
X129292978Y-100998839D01*
X129295378Y-101036602D01*
X129291011Y-101086523D01*
X129290532Y-101092000D01*
X129310365Y-101318692D01*
X129311789Y-101324005D01*
X129311789Y-101324007D01*
X129352832Y-101477180D01*
X129369261Y-101538496D01*
X129371583Y-101543476D01*
X129371584Y-101543478D01*
X129440524Y-101691318D01*
X129465432Y-101744734D01*
X129595953Y-101931139D01*
X129723595Y-102058781D01*
X129757621Y-102121093D01*
X129760500Y-102147876D01*
X129760500Y-103607467D01*
X129756758Y-103637945D01*
X129753430Y-103651294D01*
X129751806Y-103657807D01*
X129749914Y-103664582D01*
X129731014Y-103725639D01*
X129730443Y-103732439D01*
X129729892Y-103739001D01*
X129726593Y-103758929D01*
X129723349Y-103771941D01*
X129721942Y-103822324D01*
X129721565Y-103835821D01*
X129721172Y-103842847D01*
X129715824Y-103906534D01*
X129716726Y-103913294D01*
X129716726Y-103913298D01*
X129717597Y-103919824D01*
X129718655Y-103940003D01*
X129718281Y-103953401D01*
X129730258Y-104016191D01*
X129731379Y-104023108D01*
X129739833Y-104086470D01*
X129742165Y-104092877D01*
X129744416Y-104099061D01*
X129749782Y-104118542D01*
X129752295Y-104131717D01*
X129754983Y-104137988D01*
X129754984Y-104137992D01*
X129777473Y-104190461D01*
X129780050Y-104196970D01*
X129801919Y-104257054D01*
X129809105Y-104268376D01*
X129818531Y-104286254D01*
X129823809Y-104298569D01*
X129827778Y-104304113D01*
X129827782Y-104304120D01*
X129861017Y-104350542D01*
X129864946Y-104356367D01*
X129899189Y-104410325D01*
X129902902Y-104414477D01*
X129909260Y-104420835D01*
X129922616Y-104436583D01*
X129929481Y-104446172D01*
X129934553Y-104450739D01*
X129934554Y-104450740D01*
X129978398Y-104490217D01*
X129983183Y-104494758D01*
X135778611Y-110290186D01*
X135785753Y-110297952D01*
X135818425Y-110336614D01*
X135823849Y-110340761D01*
X135823850Y-110340762D01*
X135881204Y-110384612D01*
X135883615Y-110386503D01*
X135896655Y-110396987D01*
X135939884Y-110431745D01*
X135939889Y-110431748D01*
X135945202Y-110436020D01*
X135949812Y-110438308D01*
X135996000Y-110491380D01*
X136007500Y-110543970D01*
X136007500Y-111247748D01*
X136019133Y-111306231D01*
X136063448Y-111372552D01*
X136129769Y-111416867D01*
X136141938Y-111419288D01*
X136141939Y-111419288D01*
X136182184Y-111427293D01*
X136188252Y-111428500D01*
X139227748Y-111428500D01*
X139233816Y-111427293D01*
X139274061Y-111419288D01*
X139274062Y-111419288D01*
X139286231Y-111416867D01*
X139352552Y-111372552D01*
X139396867Y-111306231D01*
X139408500Y-111247748D01*
X139408500Y-108208252D01*
X139396867Y-108149769D01*
X139352552Y-108083448D01*
X139286231Y-108039133D01*
X139274062Y-108036712D01*
X139274061Y-108036712D01*
X139233816Y-108028707D01*
X139227748Y-108027500D01*
X136188252Y-108027500D01*
X136182184Y-108028707D01*
X136141939Y-108036712D01*
X136141938Y-108036712D01*
X136129769Y-108039133D01*
X136119454Y-108046025D01*
X136119450Y-108046027D01*
X136072441Y-108077438D01*
X136004688Y-108098653D01*
X135936221Y-108079870D01*
X135913344Y-108061768D01*
X131468405Y-103616829D01*
X131434379Y-103554517D01*
X131431500Y-103527734D01*
X131431500Y-102147876D01*
X131451502Y-102079755D01*
X131468405Y-102058781D01*
X131562781Y-101964405D01*
X131625093Y-101930379D01*
X131651876Y-101927500D01*
X137841569Y-101927500D01*
X137852111Y-101927942D01*
X137902534Y-101932176D01*
X137980884Y-101921721D01*
X137983874Y-101921360D01*
X138062469Y-101912822D01*
X138068930Y-101910648D01*
X138071567Y-101910068D01*
X138072068Y-101909980D01*
X138072598Y-101909856D01*
X138073112Y-101909707D01*
X138075708Y-101909069D01*
X138082470Y-101908167D01*
X138156721Y-101881143D01*
X138159624Y-101880126D01*
X138228053Y-101857097D01*
X138234519Y-101854921D01*
X138240369Y-101851406D01*
X138242797Y-101850284D01*
X138243287Y-101850082D01*
X138243777Y-101849848D01*
X138244235Y-101849599D01*
X138246641Y-101848415D01*
X138253054Y-101846081D01*
X138319797Y-101803724D01*
X138322417Y-101802106D01*
X138384269Y-101764941D01*
X138390121Y-101761425D01*
X138395082Y-101756733D01*
X138397205Y-101755122D01*
X138398099Y-101754500D01*
X138401952Y-101751586D01*
X138406325Y-101748811D01*
X138410477Y-101745098D01*
X138463005Y-101692570D01*
X138465527Y-101690117D01*
X138494323Y-101662886D01*
X138522017Y-101636697D01*
X138525855Y-101631049D01*
X138530178Y-101625970D01*
X138537037Y-101618538D01*
X140930691Y-99224884D01*
X140985901Y-99192621D01*
X141113616Y-99156962D01*
X141113620Y-99156960D01*
X141119556Y-99155303D01*
X141294299Y-99067034D01*
X141351110Y-99053500D01*
X150716500Y-99053500D01*
X150784621Y-99073502D01*
X150831114Y-99127158D01*
X150842500Y-99179500D01*
X150842500Y-102027569D01*
X150842058Y-102038111D01*
X150837824Y-102088534D01*
X150847784Y-102163171D01*
X150848274Y-102166845D01*
X150848640Y-102169874D01*
X150857178Y-102248469D01*
X150859352Y-102254930D01*
X150859932Y-102257567D01*
X150860020Y-102258068D01*
X150860144Y-102258598D01*
X150860293Y-102259112D01*
X150860931Y-102261708D01*
X150861833Y-102268470D01*
X150864166Y-102274880D01*
X150888857Y-102342720D01*
X150889874Y-102345624D01*
X150915079Y-102420519D01*
X150918594Y-102426369D01*
X150919716Y-102428797D01*
X150919918Y-102429287D01*
X150920152Y-102429777D01*
X150920401Y-102430235D01*
X150921585Y-102432641D01*
X150923919Y-102439054D01*
X150927575Y-102444814D01*
X150927575Y-102444815D01*
X150966276Y-102505797D01*
X150967894Y-102508417D01*
X150968364Y-102509199D01*
X151008575Y-102576121D01*
X151013267Y-102581082D01*
X151014878Y-102583205D01*
X151015500Y-102584099D01*
X151018414Y-102587952D01*
X151021189Y-102592325D01*
X151024902Y-102596477D01*
X151077430Y-102649005D01*
X151079882Y-102651526D01*
X151133303Y-102708017D01*
X151138951Y-102711855D01*
X151144030Y-102716178D01*
X151151462Y-102723037D01*
X155840604Y-107412179D01*
X155874630Y-107474491D01*
X155877239Y-107493034D01*
X155885620Y-107620910D01*
X155885998Y-107626677D01*
X155887420Y-107632275D01*
X155887420Y-107632277D01*
X155910478Y-107723065D01*
X155939178Y-107836071D01*
X156029626Y-108032268D01*
X156032959Y-108036984D01*
X156127462Y-108170703D01*
X156154313Y-108208697D01*
X156158455Y-108212732D01*
X156208369Y-108261356D01*
X156309065Y-108359449D01*
X156488697Y-108479475D01*
X156494000Y-108481753D01*
X156494003Y-108481755D01*
X156645554Y-108546866D01*
X156687194Y-108564756D01*
X156765129Y-108582391D01*
X156892272Y-108611161D01*
X156892278Y-108611162D01*
X156897909Y-108612436D01*
X156903680Y-108612663D01*
X156903682Y-108612663D01*
X156968653Y-108615216D01*
X157113784Y-108620918D01*
X157222147Y-108605206D01*
X157321870Y-108590748D01*
X157321875Y-108590747D01*
X157327591Y-108589918D01*
X157333063Y-108588060D01*
X157333065Y-108588060D01*
X157526703Y-108522328D01*
X157526705Y-108522327D01*
X157532167Y-108520473D01*
X157720663Y-108414911D01*
X157765935Y-108377259D01*
X157882327Y-108280456D01*
X157886765Y-108276765D01*
X158024911Y-108110663D01*
X158130473Y-107922167D01*
X158199918Y-107717591D01*
X158200747Y-107711875D01*
X158200748Y-107711870D01*
X158230385Y-107507458D01*
X158230918Y-107503784D01*
X158232536Y-107442000D01*
X158216525Y-107267754D01*
X158213297Y-107232618D01*
X158213296Y-107232615D01*
X158212768Y-107226864D01*
X158163742Y-107053034D01*
X158155693Y-107024493D01*
X158155692Y-107024491D01*
X158154125Y-107018934D01*
X158142690Y-106995745D01*
X158061127Y-106830353D01*
X158058572Y-106825172D01*
X157929309Y-106652067D01*
X157770665Y-106505418D01*
X157587952Y-106390135D01*
X157387290Y-106310079D01*
X157175400Y-106267931D01*
X157169625Y-106267855D01*
X157169621Y-106267855D01*
X157109190Y-106267064D01*
X157041337Y-106246172D01*
X157021745Y-106230170D01*
X152550405Y-101758829D01*
X152516379Y-101696517D01*
X152513500Y-101669734D01*
X152513500Y-98854173D01*
X152529944Y-98791936D01*
X152561100Y-98737092D01*
X152596425Y-98674909D01*
X152601307Y-98660235D01*
X152652986Y-98504880D01*
X152658358Y-98488732D01*
X152682949Y-98294071D01*
X152683341Y-98266000D01*
X152664194Y-98070728D01*
X152662413Y-98064829D01*
X152662412Y-98064824D01*
X152609265Y-97888793D01*
X152607484Y-97882894D01*
X152515370Y-97709653D01*
X152391361Y-97557602D01*
X152240180Y-97432535D01*
X152137069Y-97376783D01*
X152086660Y-97326788D01*
X152071283Y-97257477D01*
X152095819Y-97190855D01*
X152140187Y-97153481D01*
X152216299Y-97115034D01*
X152273110Y-97101500D01*
X153525735Y-97101500D01*
X153593856Y-97121502D01*
X153614830Y-97138405D01*
X158639595Y-102163171D01*
X158673621Y-102225483D01*
X158676500Y-102252266D01*
X158676500Y-108059734D01*
X158656498Y-108127855D01*
X158639595Y-108148829D01*
X157932829Y-108855595D01*
X157870517Y-108889621D01*
X157843734Y-108892500D01*
X149262329Y-108892500D01*
X149194208Y-108872498D01*
X149152936Y-108829024D01*
X149121731Y-108774426D01*
X148997357Y-108616659D01*
X148968147Y-108579606D01*
X148968144Y-108579603D01*
X148965255Y-108575938D01*
X148781160Y-108402758D01*
X148613241Y-108286268D01*
X148577331Y-108261356D01*
X148577328Y-108261354D01*
X148573489Y-108258691D01*
X148569296Y-108256623D01*
X148350993Y-108148968D01*
X148350990Y-108148967D01*
X148346805Y-108146903D01*
X148302379Y-108132682D01*
X148180788Y-108093761D01*
X148106087Y-108069849D01*
X148101480Y-108069099D01*
X148101477Y-108069098D01*
X147861235Y-108029972D01*
X147861236Y-108029972D01*
X147856624Y-108029221D01*
X147734026Y-108027616D01*
X147608573Y-108025974D01*
X147608570Y-108025974D01*
X147603896Y-108025913D01*
X147353455Y-108059996D01*
X147348965Y-108061305D01*
X147348959Y-108061306D01*
X147272995Y-108083448D01*
X147110803Y-108130723D01*
X147106556Y-108132681D01*
X147106553Y-108132682D01*
X147071528Y-108148829D01*
X146881270Y-108236539D01*
X146877361Y-108239102D01*
X146673812Y-108372554D01*
X146673807Y-108372558D01*
X146669899Y-108375120D01*
X146577065Y-108457977D01*
X146510203Y-108517654D01*
X146481333Y-108543421D01*
X146319715Y-108737746D01*
X146262602Y-108831866D01*
X146210163Y-108879726D01*
X146154883Y-108892500D01*
X144262329Y-108892500D01*
X144194208Y-108872498D01*
X144152936Y-108829024D01*
X144121731Y-108774426D01*
X143997357Y-108616659D01*
X143968147Y-108579606D01*
X143968144Y-108579603D01*
X143965255Y-108575938D01*
X143781160Y-108402758D01*
X143613241Y-108286268D01*
X143577331Y-108261356D01*
X143577328Y-108261354D01*
X143573489Y-108258691D01*
X143569296Y-108256623D01*
X143350993Y-108148968D01*
X143350990Y-108148967D01*
X143346805Y-108146903D01*
X143302379Y-108132682D01*
X143180788Y-108093761D01*
X143106087Y-108069849D01*
X143101480Y-108069099D01*
X143101477Y-108069098D01*
X142861235Y-108029972D01*
X142861236Y-108029972D01*
X142856624Y-108029221D01*
X142734026Y-108027616D01*
X142608573Y-108025974D01*
X142608570Y-108025974D01*
X142603896Y-108025913D01*
X142353455Y-108059996D01*
X142348965Y-108061305D01*
X142348959Y-108061306D01*
X142272995Y-108083448D01*
X142110803Y-108130723D01*
X142106556Y-108132681D01*
X142106553Y-108132682D01*
X142071528Y-108148829D01*
X141881270Y-108236539D01*
X141877361Y-108239102D01*
X141673812Y-108372554D01*
X141673807Y-108372558D01*
X141669899Y-108375120D01*
X141577065Y-108457977D01*
X141510203Y-108517654D01*
X141481333Y-108543421D01*
X141319715Y-108737746D01*
X141188595Y-108953825D01*
X141186786Y-108958139D01*
X141186785Y-108958141D01*
X141139778Y-109070241D01*
X141090854Y-109186911D01*
X141028639Y-109431883D01*
X141003316Y-109683361D01*
X141015443Y-109935820D01*
X141064752Y-110183713D01*
X141066331Y-110188111D01*
X141066333Y-110188118D01*
X141116311Y-110327317D01*
X141150160Y-110421595D01*
X141269792Y-110644240D01*
X141272587Y-110647984D01*
X141272589Y-110647986D01*
X141418226Y-110843018D01*
X141418231Y-110843024D01*
X141421018Y-110846756D01*
X141424327Y-110850036D01*
X141424332Y-110850042D01*
X141597200Y-111021408D01*
X141600517Y-111024696D01*
X141604279Y-111027454D01*
X141604282Y-111027457D01*
X141800575Y-111171384D01*
X141804346Y-111174149D01*
X141808481Y-111176325D01*
X141808485Y-111176327D01*
X141925952Y-111238129D01*
X142028026Y-111291833D01*
X142266644Y-111375162D01*
X142271237Y-111376034D01*
X142510369Y-111421435D01*
X142510372Y-111421435D01*
X142514958Y-111422306D01*
X142635081Y-111427026D01*
X142762845Y-111432046D01*
X142762850Y-111432046D01*
X142767513Y-111432229D01*
X142845657Y-111423671D01*
X143014107Y-111405223D01*
X143014112Y-111405222D01*
X143018760Y-111404713D01*
X143023284Y-111403522D01*
X143258658Y-111341554D01*
X143258661Y-111341553D01*
X143263181Y-111340363D01*
X143495405Y-111240591D01*
X143602774Y-111174149D01*
X143706358Y-111110050D01*
X143706362Y-111110047D01*
X143710331Y-111107591D01*
X143804989Y-111027457D01*
X143899672Y-110947302D01*
X143899673Y-110947301D01*
X143903238Y-110944283D01*
X143985886Y-110850042D01*
X144066806Y-110757771D01*
X144066810Y-110757766D01*
X144069888Y-110754256D01*
X144155384Y-110621337D01*
X144209058Y-110574866D01*
X144261355Y-110563500D01*
X146151074Y-110563500D01*
X146219195Y-110583502D01*
X146262065Y-110629859D01*
X146269792Y-110644240D01*
X146272587Y-110647984D01*
X146272589Y-110647986D01*
X146418226Y-110843018D01*
X146418231Y-110843024D01*
X146421018Y-110846756D01*
X146424327Y-110850036D01*
X146424332Y-110850042D01*
X146597200Y-111021408D01*
X146600517Y-111024696D01*
X146604279Y-111027454D01*
X146604282Y-111027457D01*
X146800575Y-111171384D01*
X146804346Y-111174149D01*
X146808481Y-111176325D01*
X146808485Y-111176327D01*
X146925952Y-111238129D01*
X147028026Y-111291833D01*
X147266644Y-111375162D01*
X147271237Y-111376034D01*
X147510369Y-111421435D01*
X147510372Y-111421435D01*
X147514958Y-111422306D01*
X147635081Y-111427026D01*
X147762845Y-111432046D01*
X147762850Y-111432046D01*
X147767513Y-111432229D01*
X147845657Y-111423671D01*
X148014107Y-111405223D01*
X148014112Y-111405222D01*
X148018760Y-111404713D01*
X148023284Y-111403522D01*
X148258658Y-111341554D01*
X148258661Y-111341553D01*
X148263181Y-111340363D01*
X148495405Y-111240591D01*
X148602774Y-111174149D01*
X148706358Y-111110050D01*
X148706362Y-111110047D01*
X148710331Y-111107591D01*
X148804989Y-111027457D01*
X148899672Y-110947302D01*
X148899673Y-110947301D01*
X148903238Y-110944283D01*
X148985886Y-110850042D01*
X149066806Y-110757771D01*
X149066810Y-110757766D01*
X149069888Y-110754256D01*
X149155384Y-110621337D01*
X149209058Y-110574866D01*
X149261355Y-110563500D01*
X158201569Y-110563500D01*
X158212111Y-110563942D01*
X158262534Y-110568176D01*
X158340884Y-110557721D01*
X158343874Y-110557360D01*
X158422469Y-110548822D01*
X158428930Y-110546648D01*
X158431567Y-110546068D01*
X158432068Y-110545980D01*
X158432598Y-110545856D01*
X158433112Y-110545707D01*
X158435708Y-110545069D01*
X158442470Y-110544167D01*
X158516721Y-110517143D01*
X158519624Y-110516126D01*
X158588053Y-110493097D01*
X158594519Y-110490921D01*
X158600369Y-110487406D01*
X158602797Y-110486284D01*
X158603287Y-110486082D01*
X158603777Y-110485848D01*
X158604235Y-110485599D01*
X158606641Y-110484415D01*
X158613054Y-110482081D01*
X158618815Y-110478425D01*
X158679797Y-110439724D01*
X158682417Y-110438106D01*
X158704873Y-110424613D01*
X158750121Y-110397425D01*
X158755082Y-110392733D01*
X158757205Y-110391122D01*
X158758099Y-110390500D01*
X158761952Y-110387586D01*
X158766325Y-110384811D01*
X158770477Y-110381098D01*
X158823006Y-110328569D01*
X158825528Y-110326116D01*
X158882017Y-110272697D01*
X158885855Y-110267049D01*
X158890178Y-110261970D01*
X158897037Y-110254538D01*
X160074192Y-109077384D01*
X160081959Y-109070241D01*
X160115400Y-109041981D01*
X160120614Y-109037575D01*
X160168615Y-108974791D01*
X160170506Y-108972380D01*
X160220019Y-108910798D01*
X160223054Y-108904685D01*
X160224501Y-108902422D01*
X160224803Y-108901991D01*
X160225084Y-108901539D01*
X160225335Y-108901083D01*
X160226727Y-108898784D01*
X160230871Y-108893364D01*
X160264270Y-108821738D01*
X160265605Y-108818965D01*
X160297700Y-108754313D01*
X160297702Y-108754308D01*
X160300735Y-108748198D01*
X160302387Y-108741572D01*
X160303306Y-108739074D01*
X160303513Y-108738576D01*
X160303694Y-108738066D01*
X160303840Y-108737570D01*
X160304707Y-108735024D01*
X160307590Y-108728841D01*
X160320356Y-108671730D01*
X160324831Y-108651707D01*
X160325540Y-108648710D01*
X160343000Y-108578683D01*
X160343001Y-108578678D01*
X160344651Y-108572059D01*
X160344841Y-108565239D01*
X160345205Y-108562585D01*
X160345397Y-108561520D01*
X160346062Y-108556723D01*
X160347189Y-108551682D01*
X160347500Y-108546120D01*
X160347500Y-108471814D01*
X160347549Y-108468296D01*
X160349143Y-108411220D01*
X160349719Y-108390599D01*
X160348440Y-108383892D01*
X160347906Y-108377259D01*
X160347500Y-108367152D01*
X160347500Y-101894431D01*
X160347942Y-101883888D01*
X160352176Y-101833466D01*
X160341721Y-101755116D01*
X160341356Y-101752096D01*
X160341046Y-101749239D01*
X160332822Y-101673531D01*
X160330648Y-101667070D01*
X160330068Y-101664433D01*
X160329979Y-101663932D01*
X160329857Y-101663405D01*
X160329706Y-101662886D01*
X160329070Y-101660296D01*
X160328167Y-101653530D01*
X160323748Y-101641388D01*
X160301148Y-101579294D01*
X160300130Y-101576389D01*
X160277097Y-101507948D01*
X160274921Y-101501481D01*
X160271404Y-101495627D01*
X160270282Y-101493199D01*
X160270080Y-101492709D01*
X160269855Y-101492237D01*
X160269603Y-101491775D01*
X160268415Y-101489361D01*
X160266080Y-101482946D01*
X160223736Y-101416222D01*
X160222127Y-101413618D01*
X160181425Y-101345879D01*
X160176733Y-101340918D01*
X160175122Y-101338795D01*
X160174497Y-101337896D01*
X160171582Y-101334041D01*
X160168811Y-101329675D01*
X160165098Y-101325522D01*
X160112552Y-101272976D01*
X160110099Y-101270454D01*
X160061386Y-101218941D01*
X160061384Y-101218939D01*
X160056697Y-101213983D01*
X160051056Y-101210149D01*
X160045969Y-101205820D01*
X160038539Y-101198963D01*
X154543384Y-95703808D01*
X154536241Y-95696041D01*
X154507980Y-95662599D01*
X154503575Y-95657386D01*
X154497521Y-95652757D01*
X154440813Y-95609400D01*
X154438392Y-95607501D01*
X154382123Y-95562260D01*
X154382115Y-95562255D01*
X154376798Y-95557980D01*
X154370685Y-95554945D01*
X154368417Y-95553495D01*
X154367988Y-95553195D01*
X154367540Y-95552916D01*
X154367071Y-95552658D01*
X154364786Y-95551274D01*
X154359364Y-95547129D01*
X154335078Y-95535804D01*
X154287757Y-95513737D01*
X154284985Y-95512403D01*
X154225061Y-95482657D01*
X154214198Y-95477265D01*
X154207575Y-95475614D01*
X154205070Y-95474692D01*
X154204574Y-95474486D01*
X154204066Y-95474306D01*
X154203570Y-95474160D01*
X154201024Y-95473293D01*
X154194841Y-95470410D01*
X154188187Y-95468923D01*
X154188185Y-95468922D01*
X154117707Y-95453169D01*
X154114710Y-95452460D01*
X154044683Y-95435000D01*
X154044678Y-95434999D01*
X154038059Y-95433349D01*
X154031239Y-95433159D01*
X154028585Y-95432795D01*
X154027520Y-95432603D01*
X154022723Y-95431938D01*
X154017682Y-95430811D01*
X154012120Y-95430500D01*
X153937814Y-95430500D01*
X153934296Y-95430451D01*
X153932585Y-95430403D01*
X153856599Y-95428281D01*
X153849892Y-95429560D01*
X153843259Y-95430094D01*
X153833152Y-95430500D01*
X152268300Y-95430500D01*
X152208371Y-95415336D01*
X152168162Y-95393595D01*
X152067585Y-95339213D01*
X151955445Y-95304500D01*
X151886039Y-95283015D01*
X151886036Y-95283014D01*
X151880152Y-95281193D01*
X151874027Y-95280549D01*
X151874026Y-95280549D01*
X151691147Y-95261327D01*
X151691146Y-95261327D01*
X151685019Y-95260683D01*
X151562383Y-95271844D01*
X151495759Y-95277907D01*
X151495758Y-95277907D01*
X151489618Y-95278466D01*
X151483704Y-95280207D01*
X151483702Y-95280207D01*
X151361566Y-95316154D01*
X151301393Y-95333864D01*
X151187139Y-95393595D01*
X151143972Y-95416162D01*
X151085597Y-95430500D01*
X149591500Y-95430500D01*
X149523379Y-95410498D01*
X149476886Y-95356842D01*
X149465500Y-95304500D01*
X149465500Y-90314265D01*
X149485502Y-90246144D01*
X149502405Y-90225170D01*
X150474170Y-89253405D01*
X150536482Y-89219379D01*
X150563265Y-89216500D01*
X152855810Y-89216500D01*
X152923931Y-89236502D01*
X152970424Y-89290158D01*
X152980528Y-89360432D01*
X152964929Y-89405500D01*
X152886125Y-89541993D01*
X152882821Y-89547716D01*
X152824326Y-89727744D01*
X152823636Y-89734305D01*
X152823636Y-89734307D01*
X152814215Y-89823948D01*
X152804540Y-89916000D01*
X152805230Y-89922565D01*
X152820526Y-90068096D01*
X152824326Y-90104256D01*
X152841797Y-90158026D01*
X152868333Y-90239695D01*
X152874500Y-90278631D01*
X152874500Y-93177569D01*
X152874058Y-93188111D01*
X152869824Y-93238534D01*
X152879888Y-93313950D01*
X152880274Y-93316845D01*
X152880640Y-93319874D01*
X152889178Y-93398469D01*
X152891352Y-93404930D01*
X152891932Y-93407567D01*
X152892020Y-93408068D01*
X152892144Y-93408598D01*
X152892293Y-93409112D01*
X152892931Y-93411708D01*
X152893833Y-93418470D01*
X152896166Y-93424880D01*
X152920857Y-93492720D01*
X152921874Y-93495624D01*
X152947079Y-93570519D01*
X152950594Y-93576369D01*
X152951716Y-93578797D01*
X152951918Y-93579287D01*
X152952152Y-93579777D01*
X152952401Y-93580235D01*
X152953585Y-93582641D01*
X152955919Y-93589054D01*
X152959575Y-93594814D01*
X152959575Y-93594815D01*
X152998276Y-93655797D01*
X152999894Y-93658417D01*
X153040575Y-93726121D01*
X153045267Y-93731082D01*
X153046878Y-93733205D01*
X153047500Y-93734099D01*
X153050414Y-93737952D01*
X153053189Y-93742325D01*
X153056902Y-93746477D01*
X153109430Y-93799005D01*
X153111882Y-93801526D01*
X153165303Y-93858017D01*
X153170951Y-93861855D01*
X153176030Y-93866178D01*
X153183462Y-93873037D01*
X153598611Y-94288186D01*
X153605753Y-94295952D01*
X153638425Y-94334614D01*
X153643844Y-94338757D01*
X153643845Y-94338758D01*
X153701223Y-94382626D01*
X153703643Y-94384524D01*
X153765202Y-94434019D01*
X153771313Y-94437053D01*
X153773576Y-94438500D01*
X153774007Y-94438802D01*
X153774458Y-94439082D01*
X153774917Y-94439335D01*
X153777216Y-94440727D01*
X153782636Y-94444871D01*
X153788822Y-94447755D01*
X153788821Y-94447755D01*
X153854259Y-94478269D01*
X153857035Y-94479605D01*
X153921687Y-94511700D01*
X153921692Y-94511702D01*
X153927802Y-94514735D01*
X153934428Y-94516387D01*
X153936926Y-94517306D01*
X153937424Y-94517513D01*
X153937934Y-94517694D01*
X153938430Y-94517840D01*
X153940976Y-94518707D01*
X153947159Y-94521590D01*
X153953813Y-94523077D01*
X153953815Y-94523078D01*
X154024325Y-94538838D01*
X154027324Y-94539547D01*
X154103941Y-94558650D01*
X154110762Y-94558841D01*
X154113414Y-94559204D01*
X154114493Y-94559398D01*
X154119268Y-94560060D01*
X154124318Y-94561189D01*
X154129880Y-94561500D01*
X154204201Y-94561500D01*
X154207719Y-94561549D01*
X154285401Y-94563719D01*
X154292108Y-94562440D01*
X154298741Y-94561906D01*
X154308848Y-94561500D01*
X156304500Y-94561500D01*
X156372621Y-94581502D01*
X156419114Y-94635158D01*
X156430500Y-94687500D01*
X156430500Y-96225569D01*
X156430058Y-96236111D01*
X156425824Y-96286534D01*
X156432499Y-96336554D01*
X156436274Y-96364845D01*
X156436640Y-96367874D01*
X156445178Y-96446469D01*
X156447352Y-96452930D01*
X156447932Y-96455567D01*
X156448020Y-96456068D01*
X156448144Y-96456598D01*
X156448293Y-96457112D01*
X156448931Y-96459708D01*
X156449833Y-96466470D01*
X156452166Y-96472880D01*
X156476857Y-96540720D01*
X156477874Y-96543624D01*
X156503079Y-96618519D01*
X156506594Y-96624369D01*
X156507716Y-96626797D01*
X156507918Y-96627287D01*
X156508152Y-96627777D01*
X156508401Y-96628235D01*
X156509585Y-96630641D01*
X156511919Y-96637054D01*
X156515575Y-96642814D01*
X156515575Y-96642815D01*
X156554276Y-96703797D01*
X156555894Y-96706417D01*
X156596575Y-96774121D01*
X156601267Y-96779082D01*
X156602878Y-96781205D01*
X156603500Y-96782099D01*
X156606412Y-96785949D01*
X156609189Y-96790325D01*
X156612902Y-96794477D01*
X156614132Y-96795707D01*
X156665431Y-96847007D01*
X156667883Y-96849528D01*
X156721303Y-96906017D01*
X156726953Y-96909856D01*
X156732027Y-96914175D01*
X156739462Y-96921037D01*
X161179595Y-101361171D01*
X161213621Y-101423483D01*
X161216500Y-101450266D01*
X161216500Y-106559256D01*
X161196498Y-106627377D01*
X161189452Y-106637259D01*
X161061919Y-106799034D01*
X161059228Y-106804150D01*
X161059226Y-106804152D01*
X161010725Y-106896337D01*
X160961327Y-106990228D01*
X160897262Y-107196553D01*
X160871869Y-107411097D01*
X160885998Y-107626677D01*
X160887420Y-107632275D01*
X160887420Y-107632277D01*
X160910478Y-107723065D01*
X160939178Y-107836071D01*
X161029626Y-108032268D01*
X161032959Y-108036984D01*
X161127462Y-108170703D01*
X161154313Y-108208697D01*
X161158455Y-108212732D01*
X161208369Y-108261356D01*
X161309065Y-108359449D01*
X161488697Y-108479475D01*
X161494000Y-108481753D01*
X161494003Y-108481755D01*
X161645554Y-108546866D01*
X161687194Y-108564756D01*
X161765129Y-108582391D01*
X161892272Y-108611161D01*
X161892278Y-108611162D01*
X161897909Y-108612436D01*
X161903680Y-108612663D01*
X161903682Y-108612663D01*
X161968653Y-108615216D01*
X162113784Y-108620918D01*
X162222147Y-108605206D01*
X162321870Y-108590748D01*
X162321875Y-108590747D01*
X162327591Y-108589918D01*
X162333063Y-108588060D01*
X162333065Y-108588060D01*
X162526703Y-108522328D01*
X162526705Y-108522327D01*
X162532167Y-108520473D01*
X162720663Y-108414911D01*
X162765935Y-108377259D01*
X162882327Y-108280456D01*
X162886765Y-108276765D01*
X163024911Y-108110663D01*
X163130473Y-107922167D01*
X163199918Y-107717591D01*
X163200747Y-107711875D01*
X163200748Y-107711870D01*
X163230385Y-107507458D01*
X163230918Y-107503784D01*
X163232536Y-107442000D01*
X163216525Y-107267754D01*
X163213297Y-107232618D01*
X163213296Y-107232615D01*
X163212768Y-107226864D01*
X163163742Y-107053034D01*
X163155693Y-107024493D01*
X163155692Y-107024491D01*
X163154125Y-107018934D01*
X163142690Y-106995745D01*
X163061127Y-106830353D01*
X163058572Y-106825172D01*
X162929309Y-106652067D01*
X162925063Y-106648142D01*
X162921203Y-106643855D01*
X162922889Y-106642337D01*
X162891524Y-106589894D01*
X162887500Y-106558306D01*
X162887500Y-101092431D01*
X162887942Y-101081888D01*
X162891605Y-101038264D01*
X162892176Y-101031466D01*
X162881721Y-100953116D01*
X162881356Y-100950096D01*
X162873558Y-100878310D01*
X162872822Y-100871531D01*
X162870648Y-100865070D01*
X162870068Y-100862433D01*
X162869980Y-100861932D01*
X162869856Y-100861402D01*
X162869707Y-100860888D01*
X162869069Y-100858292D01*
X162868167Y-100851530D01*
X162841143Y-100777279D01*
X162840126Y-100774376D01*
X162817097Y-100705947D01*
X162814921Y-100699481D01*
X162811406Y-100693631D01*
X162810284Y-100691203D01*
X162810082Y-100690713D01*
X162809848Y-100690223D01*
X162809599Y-100689765D01*
X162808415Y-100687359D01*
X162806081Y-100680946D01*
X162763724Y-100614203D01*
X162762106Y-100611583D01*
X162724941Y-100549731D01*
X162721425Y-100543879D01*
X162716733Y-100538918D01*
X162715122Y-100536795D01*
X162714497Y-100535896D01*
X162711582Y-100532041D01*
X162708811Y-100527675D01*
X162705098Y-100523522D01*
X162652552Y-100470976D01*
X162650099Y-100468454D01*
X162601386Y-100416941D01*
X162601384Y-100416939D01*
X162596697Y-100411983D01*
X162591056Y-100408149D01*
X162585969Y-100403820D01*
X162578539Y-100396963D01*
X159662829Y-97481253D01*
X159628803Y-97418941D01*
X159633868Y-97348126D01*
X159676415Y-97291290D01*
X159742935Y-97266479D01*
X159801660Y-97276390D01*
X159836342Y-97291290D01*
X159957857Y-97343497D01*
X159957860Y-97343498D01*
X159963160Y-97345775D01*
X159968790Y-97347049D01*
X160160172Y-97390355D01*
X160160175Y-97390355D01*
X160165808Y-97391630D01*
X160171579Y-97391857D01*
X160171581Y-97391857D01*
X160234985Y-97394348D01*
X160373419Y-97399787D01*
X160476230Y-97384880D01*
X160573327Y-97370802D01*
X160573332Y-97370801D01*
X160579041Y-97369973D01*
X160584505Y-97368118D01*
X160584510Y-97368117D01*
X160770318Y-97305043D01*
X160775786Y-97303187D01*
X160957065Y-97201666D01*
X161007910Y-97159379D01*
X161042482Y-97130626D01*
X161107646Y-97102445D01*
X161123051Y-97101500D01*
X162519569Y-97101500D01*
X162530111Y-97101942D01*
X162580534Y-97106176D01*
X162588471Y-97105117D01*
X162596826Y-97104002D01*
X162658884Y-97095721D01*
X162661874Y-97095360D01*
X162740469Y-97086822D01*
X162746930Y-97084648D01*
X162749567Y-97084068D01*
X162750068Y-97083980D01*
X162750598Y-97083856D01*
X162751112Y-97083707D01*
X162753708Y-97083069D01*
X162760470Y-97082167D01*
X162834721Y-97055143D01*
X162837624Y-97054126D01*
X162912519Y-97028921D01*
X162918369Y-97025406D01*
X162920797Y-97024284D01*
X162921287Y-97024082D01*
X162921777Y-97023848D01*
X162922235Y-97023599D01*
X162924641Y-97022415D01*
X162931054Y-97020081D01*
X162936815Y-97016425D01*
X162997797Y-96977724D01*
X163000417Y-96976106D01*
X163040852Y-96951810D01*
X163068121Y-96935425D01*
X163073082Y-96930733D01*
X163075205Y-96929122D01*
X163076099Y-96928500D01*
X163079952Y-96925586D01*
X163084325Y-96922811D01*
X163088477Y-96919098D01*
X163141006Y-96866569D01*
X163143528Y-96864116D01*
X163161620Y-96847007D01*
X163200017Y-96810697D01*
X163203855Y-96805049D01*
X163208178Y-96799970D01*
X163215037Y-96792538D01*
X164646192Y-95361384D01*
X164653959Y-95354241D01*
X164687400Y-95325981D01*
X164692614Y-95321575D01*
X164740615Y-95258791D01*
X164742506Y-95256380D01*
X164792019Y-95194798D01*
X164795054Y-95188685D01*
X164796501Y-95186422D01*
X164796803Y-95185991D01*
X164797084Y-95185539D01*
X164797335Y-95185083D01*
X164798727Y-95182784D01*
X164802871Y-95177364D01*
X164836270Y-95105738D01*
X164837605Y-95102965D01*
X164869700Y-95038313D01*
X164869702Y-95038308D01*
X164872735Y-95032198D01*
X164874387Y-95025572D01*
X164875306Y-95023074D01*
X164875513Y-95022576D01*
X164875694Y-95022066D01*
X164875840Y-95021570D01*
X164876707Y-95019024D01*
X164879590Y-95012841D01*
X164887572Y-94977133D01*
X164896838Y-94935675D01*
X164897547Y-94932678D01*
X164914998Y-94862684D01*
X164916650Y-94856059D01*
X164916841Y-94849238D01*
X164917204Y-94846586D01*
X164917398Y-94845507D01*
X164918060Y-94840732D01*
X164919189Y-94835682D01*
X164919500Y-94830120D01*
X164919500Y-94755799D01*
X164919549Y-94752281D01*
X164920435Y-94720549D01*
X164921719Y-94674599D01*
X164920440Y-94667892D01*
X164919906Y-94661259D01*
X164919500Y-94651152D01*
X164919500Y-90210431D01*
X164919942Y-90199888D01*
X164921799Y-90177769D01*
X164924176Y-90149466D01*
X164913721Y-90071116D01*
X164913356Y-90068096D01*
X164904822Y-89989531D01*
X164902648Y-89983070D01*
X164902068Y-89980433D01*
X164901979Y-89979932D01*
X164901857Y-89979405D01*
X164901706Y-89978886D01*
X164901070Y-89976296D01*
X164900167Y-89969530D01*
X164897832Y-89963114D01*
X164873148Y-89895294D01*
X164872130Y-89892389D01*
X164849097Y-89823948D01*
X164846921Y-89817481D01*
X164843404Y-89811627D01*
X164842282Y-89809199D01*
X164842080Y-89808709D01*
X164841855Y-89808237D01*
X164841603Y-89807775D01*
X164840415Y-89805361D01*
X164838080Y-89798946D01*
X164795736Y-89732222D01*
X164794127Y-89729618D01*
X164789229Y-89721466D01*
X164753425Y-89661879D01*
X164748733Y-89656918D01*
X164747122Y-89654795D01*
X164746497Y-89653896D01*
X164743582Y-89650041D01*
X164740811Y-89645675D01*
X164737098Y-89641522D01*
X164684552Y-89588976D01*
X164682099Y-89586454D01*
X164633386Y-89534941D01*
X164633384Y-89534939D01*
X164628697Y-89529983D01*
X164623056Y-89526149D01*
X164617969Y-89521820D01*
X164610539Y-89514963D01*
X160131384Y-85035808D01*
X160124241Y-85028041D01*
X160091575Y-84989386D01*
X160086154Y-84985241D01*
X160028813Y-84941400D01*
X160026392Y-84939501D01*
X159970123Y-84894260D01*
X159970115Y-84894255D01*
X159964798Y-84889980D01*
X159958685Y-84886945D01*
X159956417Y-84885495D01*
X159955988Y-84885195D01*
X159955540Y-84884916D01*
X159955071Y-84884658D01*
X159952786Y-84883274D01*
X159947364Y-84879129D01*
X159923078Y-84867804D01*
X159875757Y-84845737D01*
X159872985Y-84844403D01*
X159808314Y-84812301D01*
X159802198Y-84809265D01*
X159795575Y-84807614D01*
X159793070Y-84806692D01*
X159792574Y-84806486D01*
X159792066Y-84806306D01*
X159791570Y-84806160D01*
X159789024Y-84805293D01*
X159782841Y-84802410D01*
X159776187Y-84800923D01*
X159776185Y-84800922D01*
X159705707Y-84785169D01*
X159702710Y-84784460D01*
X159632683Y-84767000D01*
X159632678Y-84766999D01*
X159626059Y-84765349D01*
X159619239Y-84765159D01*
X159616585Y-84764795D01*
X159615520Y-84764603D01*
X159610723Y-84763938D01*
X159605682Y-84762811D01*
X159600120Y-84762500D01*
X159525814Y-84762500D01*
X159522296Y-84762451D01*
X159520585Y-84762403D01*
X159444599Y-84760281D01*
X159437892Y-84761560D01*
X159431259Y-84762094D01*
X159421152Y-84762500D01*
X149138443Y-84762500D01*
X149127900Y-84762058D01*
X149077467Y-84757823D01*
X149070708Y-84758725D01*
X149070703Y-84758725D01*
X148999127Y-84768275D01*
X148996073Y-84768645D01*
X148959106Y-84772661D01*
X148917531Y-84777178D01*
X148911061Y-84779356D01*
X148908453Y-84779929D01*
X148907922Y-84780023D01*
X148907391Y-84780146D01*
X148906892Y-84780291D01*
X148904288Y-84780931D01*
X148897531Y-84781832D01*
X148891123Y-84784164D01*
X148891116Y-84784166D01*
X148823260Y-84808863D01*
X148820375Y-84809874D01*
X148745481Y-84835079D01*
X148739632Y-84838594D01*
X148737214Y-84839711D01*
X148736721Y-84839914D01*
X148736224Y-84840152D01*
X148735768Y-84840400D01*
X148733359Y-84841585D01*
X148726947Y-84843919D01*
X148676011Y-84876245D01*
X148660233Y-84886258D01*
X148657613Y-84887876D01*
X148613811Y-84914195D01*
X148589879Y-84928575D01*
X148584918Y-84933266D01*
X148582795Y-84934878D01*
X148581913Y-84935491D01*
X148578045Y-84938417D01*
X148573676Y-84941189D01*
X148569523Y-84944902D01*
X148516995Y-84997430D01*
X148514474Y-84999882D01*
X148457983Y-85053303D01*
X148454145Y-85058951D01*
X148449822Y-85064030D01*
X148442963Y-85071462D01*
X142946829Y-90567595D01*
X142884517Y-90601621D01*
X142857734Y-90604500D01*
X132022500Y-90604500D01*
X131954379Y-90584498D01*
X131907886Y-90530842D01*
X131896500Y-90478500D01*
X131896500Y-90320252D01*
X131884867Y-90261769D01*
X131840552Y-90195448D01*
X131774231Y-90151133D01*
X131762062Y-90148712D01*
X131762061Y-90148712D01*
X131721816Y-90140707D01*
X131715748Y-90139500D01*
X129476252Y-90139500D01*
X129470184Y-90140707D01*
X129429939Y-90148712D01*
X129429938Y-90148712D01*
X129417769Y-90151133D01*
X129351448Y-90195448D01*
X129307133Y-90261769D01*
X129295500Y-90320252D01*
X129295500Y-92559748D01*
X129296707Y-92565816D01*
X129303110Y-92598004D01*
X129307133Y-92618231D01*
X129351448Y-92684552D01*
X129417769Y-92728867D01*
X129429938Y-92731288D01*
X129429939Y-92731288D01*
X129470184Y-92739293D01*
X129476252Y-92740500D01*
X129634500Y-92740500D01*
X129702621Y-92760502D01*
X129749114Y-92814158D01*
X129760500Y-92866500D01*
X129760500Y-94839500D01*
X129740498Y-94907621D01*
X129686842Y-94954114D01*
X129634500Y-94965500D01*
X129476252Y-94965500D01*
X129470184Y-94966707D01*
X129429939Y-94974712D01*
X129429938Y-94974712D01*
X129417769Y-94977133D01*
X129351448Y-95021448D01*
X129307133Y-95087769D01*
X129295500Y-95146252D01*
X129295500Y-97385748D01*
X129296707Y-97391816D01*
X129304224Y-97429604D01*
X129307133Y-97444231D01*
X129351448Y-97510552D01*
X129417769Y-97554867D01*
X129429938Y-97557288D01*
X129429939Y-97557288D01*
X129455519Y-97562376D01*
X129476252Y-97566500D01*
X131715748Y-97566500D01*
X131736481Y-97562376D01*
X131762061Y-97557288D01*
X131762062Y-97557288D01*
X131774231Y-97554867D01*
X131840552Y-97510552D01*
X131884867Y-97444231D01*
X131887777Y-97429604D01*
X131895293Y-97391816D01*
X131896500Y-97385748D01*
X131896500Y-97227500D01*
X131916502Y-97159379D01*
X131970158Y-97112886D01*
X132022500Y-97101500D01*
X137667569Y-97101500D01*
X137678111Y-97101942D01*
X137728534Y-97106176D01*
X137736471Y-97105117D01*
X137744826Y-97104002D01*
X137806884Y-97095721D01*
X137809874Y-97095360D01*
X137888469Y-97086822D01*
X137894930Y-97084648D01*
X137897567Y-97084068D01*
X137898068Y-97083980D01*
X137898598Y-97083856D01*
X137899112Y-97083707D01*
X137901708Y-97083069D01*
X137908470Y-97082167D01*
X137982721Y-97055143D01*
X137985624Y-97054126D01*
X138060519Y-97028921D01*
X138066369Y-97025406D01*
X138068797Y-97024284D01*
X138069287Y-97024082D01*
X138069777Y-97023848D01*
X138070235Y-97023599D01*
X138072641Y-97022415D01*
X138079054Y-97020081D01*
X138084815Y-97016425D01*
X138145797Y-96977724D01*
X138148417Y-96976106D01*
X138188852Y-96951810D01*
X138216121Y-96935425D01*
X138221082Y-96930733D01*
X138223205Y-96929122D01*
X138224099Y-96928500D01*
X138227952Y-96925586D01*
X138232325Y-96922811D01*
X138236477Y-96919098D01*
X138289006Y-96866569D01*
X138291528Y-96864116D01*
X138309620Y-96847007D01*
X138348017Y-96810697D01*
X138351855Y-96805049D01*
X138356178Y-96799970D01*
X138363037Y-96792538D01*
X140930693Y-94224883D01*
X140985904Y-94192620D01*
X141025642Y-94181525D01*
X141119556Y-94155303D01*
X141294689Y-94066837D01*
X141449303Y-93946040D01*
X141577509Y-93797511D01*
X141674425Y-93626909D01*
X141736358Y-93440732D01*
X141760949Y-93246071D01*
X141761341Y-93218000D01*
X141742194Y-93022728D01*
X141740413Y-93016829D01*
X141740412Y-93016824D01*
X141687265Y-92840793D01*
X141685484Y-92834894D01*
X141593370Y-92661653D01*
X141469361Y-92509602D01*
X141464619Y-92505679D01*
X141464615Y-92505675D01*
X141456043Y-92498584D01*
X141416305Y-92439750D01*
X141414684Y-92368772D01*
X141451694Y-92308185D01*
X141515584Y-92277225D01*
X141536359Y-92275500D01*
X143215569Y-92275500D01*
X143226111Y-92275942D01*
X143276534Y-92280176D01*
X143354884Y-92269721D01*
X143357874Y-92269360D01*
X143436469Y-92260822D01*
X143442930Y-92258648D01*
X143445567Y-92258068D01*
X143446068Y-92257980D01*
X143446598Y-92257856D01*
X143447112Y-92257707D01*
X143449708Y-92257069D01*
X143456470Y-92256167D01*
X143530721Y-92229143D01*
X143533624Y-92228126D01*
X143602053Y-92205097D01*
X143608519Y-92202921D01*
X143614369Y-92199406D01*
X143616797Y-92198284D01*
X143617287Y-92198082D01*
X143617777Y-92197848D01*
X143618235Y-92197599D01*
X143620641Y-92196415D01*
X143627054Y-92194081D01*
X143693797Y-92151724D01*
X143696417Y-92150106D01*
X143758269Y-92112941D01*
X143764121Y-92109425D01*
X143769082Y-92104733D01*
X143771205Y-92103122D01*
X143772099Y-92102500D01*
X143775952Y-92099586D01*
X143780325Y-92096811D01*
X143784477Y-92093098D01*
X143837005Y-92040570D01*
X143839527Y-92038117D01*
X143891056Y-91989388D01*
X143896017Y-91984697D01*
X143899855Y-91979049D01*
X143904178Y-91973970D01*
X143911037Y-91966538D01*
X149407170Y-86470405D01*
X149469482Y-86436379D01*
X149496265Y-86433500D01*
X159113735Y-86433500D01*
X159181856Y-86453502D01*
X159202830Y-86470405D01*
X163211595Y-90479171D01*
X163245621Y-90541483D01*
X163248500Y-90568266D01*
X163248500Y-94343734D01*
X163228498Y-94411855D01*
X163211595Y-94432829D01*
X162250829Y-95393595D01*
X162188517Y-95427621D01*
X162161734Y-95430500D01*
X161125031Y-95430500D01*
X161056910Y-95410498D01*
X161039502Y-95397024D01*
X161009394Y-95369192D01*
X161009392Y-95369190D01*
X161005153Y-95365272D01*
X160847742Y-95265953D01*
X160834315Y-95257481D01*
X160829435Y-95254402D01*
X160636455Y-95177411D01*
X160630795Y-95176285D01*
X160630791Y-95176284D01*
X160438344Y-95138004D01*
X160438339Y-95138004D01*
X160432676Y-95136877D01*
X160426901Y-95136801D01*
X160426897Y-95136801D01*
X160322307Y-95135432D01*
X160224922Y-95134157D01*
X160219225Y-95135136D01*
X160219224Y-95135136D01*
X160025842Y-95168365D01*
X160025839Y-95168366D01*
X160020152Y-95169343D01*
X159825222Y-95241256D01*
X159646662Y-95347488D01*
X159490451Y-95484481D01*
X159361821Y-95647648D01*
X159359133Y-95652757D01*
X159267769Y-95826411D01*
X159267767Y-95826416D01*
X159265080Y-95831523D01*
X159203467Y-96029949D01*
X159179046Y-96236280D01*
X159192635Y-96443607D01*
X159194056Y-96449203D01*
X159194057Y-96449208D01*
X159218036Y-96543624D01*
X159243779Y-96644985D01*
X159246196Y-96650228D01*
X159305233Y-96778290D01*
X159315588Y-96848528D01*
X159286325Y-96913213D01*
X159226736Y-96951810D01*
X159155740Y-96952063D01*
X159101712Y-96920136D01*
X158138405Y-95956829D01*
X158104379Y-95894517D01*
X158101500Y-95867734D01*
X158101500Y-94687500D01*
X158121502Y-94619379D01*
X158175158Y-94572886D01*
X158227500Y-94561500D01*
X159500208Y-94561500D01*
X159568329Y-94581502D01*
X159588129Y-94597246D01*
X159595365Y-94604295D01*
X159595371Y-94604300D01*
X159599505Y-94608327D01*
X159604301Y-94611532D01*
X159604304Y-94611534D01*
X159616045Y-94619379D01*
X159772261Y-94723759D01*
X159777569Y-94726040D01*
X159777570Y-94726040D01*
X159957857Y-94803497D01*
X159957860Y-94803498D01*
X159963160Y-94805775D01*
X159968790Y-94807049D01*
X160160172Y-94850355D01*
X160160175Y-94850355D01*
X160165808Y-94851630D01*
X160171579Y-94851857D01*
X160171581Y-94851857D01*
X160234985Y-94854348D01*
X160373419Y-94859787D01*
X160476230Y-94844880D01*
X160573327Y-94830802D01*
X160573332Y-94830801D01*
X160579041Y-94829973D01*
X160584505Y-94828118D01*
X160584510Y-94828117D01*
X160770318Y-94765043D01*
X160775786Y-94763187D01*
X160957065Y-94661666D01*
X161116809Y-94528809D01*
X161237615Y-94383555D01*
X161245975Y-94373503D01*
X161249666Y-94369065D01*
X161351187Y-94187786D01*
X161417973Y-93991041D01*
X161418801Y-93985332D01*
X161418802Y-93985327D01*
X161445451Y-93801527D01*
X161447787Y-93785419D01*
X161449343Y-93726000D01*
X161430332Y-93519100D01*
X161373934Y-93319129D01*
X161282039Y-93132785D01*
X161157724Y-92966307D01*
X161005153Y-92825272D01*
X160902499Y-92760502D01*
X160834315Y-92717481D01*
X160829435Y-92714402D01*
X160636455Y-92637411D01*
X160630795Y-92636285D01*
X160630791Y-92636284D01*
X160438344Y-92598004D01*
X160438339Y-92598004D01*
X160432676Y-92596877D01*
X160426901Y-92596801D01*
X160426897Y-92596801D01*
X160322768Y-92595438D01*
X160224922Y-92594157D01*
X160219225Y-92595136D01*
X160219224Y-92595136D01*
X160025842Y-92628365D01*
X160025839Y-92628366D01*
X160020152Y-92629343D01*
X159825222Y-92701256D01*
X159778812Y-92728867D01*
X159651630Y-92804532D01*
X159651627Y-92804534D01*
X159646662Y-92807488D01*
X159642318Y-92811298D01*
X159642312Y-92811302D01*
X159587658Y-92859232D01*
X159523254Y-92889109D01*
X159504581Y-92890500D01*
X157345122Y-92890500D01*
X157324543Y-92888808D01*
X157319652Y-92887998D01*
X157319647Y-92887998D01*
X157312914Y-92886883D01*
X157306098Y-92887240D01*
X157306094Y-92887240D01*
X157247202Y-92890327D01*
X157240607Y-92890500D01*
X154671500Y-92890500D01*
X154603379Y-92870498D01*
X154556886Y-92816842D01*
X154545500Y-92764500D01*
X154545500Y-90278631D01*
X154551667Y-90239695D01*
X154578203Y-90158026D01*
X154595674Y-90104256D01*
X154599475Y-90068096D01*
X154614770Y-89922565D01*
X154615460Y-89916000D01*
X154605785Y-89823948D01*
X154596364Y-89734307D01*
X154596364Y-89734305D01*
X154595674Y-89727744D01*
X154537179Y-89547716D01*
X154533875Y-89541993D01*
X154455071Y-89405500D01*
X154438333Y-89336504D01*
X154461554Y-89269413D01*
X154517361Y-89225526D01*
X154564190Y-89216500D01*
X157110735Y-89216500D01*
X157178856Y-89236502D01*
X157199830Y-89253405D01*
X159146595Y-91200171D01*
X159180621Y-91262483D01*
X159183500Y-91289266D01*
X159183500Y-92135748D01*
X159195133Y-92194231D01*
X159239448Y-92260552D01*
X159266128Y-92278379D01*
X159291754Y-92295502D01*
X159305769Y-92304867D01*
X159317938Y-92307288D01*
X159317939Y-92307288D01*
X159343665Y-92312405D01*
X159364252Y-92316500D01*
X161263748Y-92316500D01*
X161284335Y-92312405D01*
X161310061Y-92307288D01*
X161310062Y-92307288D01*
X161322231Y-92304867D01*
X161336247Y-92295502D01*
X161361872Y-92278379D01*
X161388552Y-92260552D01*
X161432867Y-92194231D01*
X161444500Y-92135748D01*
X161444500Y-90236252D01*
X161432867Y-90177769D01*
X161388552Y-90111448D01*
X161322231Y-90067133D01*
X161310062Y-90064712D01*
X161310061Y-90064712D01*
X161269816Y-90056707D01*
X161263748Y-90055500D01*
X160417265Y-90055500D01*
X160349144Y-90035498D01*
X160328170Y-90018595D01*
X158128384Y-87818808D01*
X158121241Y-87811041D01*
X158105345Y-87792231D01*
X158088575Y-87772386D01*
X158083154Y-87768241D01*
X158025813Y-87724400D01*
X158023392Y-87722501D01*
X157967123Y-87677260D01*
X157967115Y-87677255D01*
X157961798Y-87672980D01*
X157955685Y-87669945D01*
X157953417Y-87668495D01*
X157952988Y-87668195D01*
X157952540Y-87667916D01*
X157952071Y-87667658D01*
X157949786Y-87666274D01*
X157944364Y-87662129D01*
X157920078Y-87650804D01*
X157872757Y-87628737D01*
X157869985Y-87627403D01*
X157805314Y-87595301D01*
X157799198Y-87592265D01*
X157792575Y-87590614D01*
X157790070Y-87589692D01*
X157789574Y-87589486D01*
X157789066Y-87589306D01*
X157788570Y-87589160D01*
X157786024Y-87588293D01*
X157779841Y-87585410D01*
X157773187Y-87583923D01*
X157773185Y-87583922D01*
X157702707Y-87568169D01*
X157699710Y-87567460D01*
X157629683Y-87550000D01*
X157629678Y-87549999D01*
X157623059Y-87548349D01*
X157616239Y-87548159D01*
X157613585Y-87547795D01*
X157612520Y-87547603D01*
X157607723Y-87546938D01*
X157602682Y-87545811D01*
X157597120Y-87545500D01*
X157522814Y-87545500D01*
X157519296Y-87545451D01*
X157517585Y-87545403D01*
X157441599Y-87543281D01*
X157434892Y-87544560D01*
X157428259Y-87545094D01*
X157418152Y-87545500D01*
X150205443Y-87545500D01*
X150194900Y-87545058D01*
X150144466Y-87540823D01*
X150137706Y-87541725D01*
X150137705Y-87541725D01*
X150066119Y-87551277D01*
X150063062Y-87551647D01*
X149991311Y-87559441D01*
X149991307Y-87559442D01*
X149984531Y-87560178D01*
X149978067Y-87562353D01*
X149975438Y-87562931D01*
X149974926Y-87563021D01*
X149974414Y-87563140D01*
X149973907Y-87563288D01*
X149971300Y-87563928D01*
X149964530Y-87564832D01*
X149958116Y-87567167D01*
X149958114Y-87567167D01*
X149890277Y-87591858D01*
X149887370Y-87592876D01*
X149836036Y-87610152D01*
X149812481Y-87618079D01*
X149806632Y-87621594D01*
X149804214Y-87622711D01*
X149803721Y-87622914D01*
X149803224Y-87623152D01*
X149802768Y-87623400D01*
X149800359Y-87624585D01*
X149793947Y-87626919D01*
X149743011Y-87659245D01*
X149727233Y-87669258D01*
X149724613Y-87670876D01*
X149680811Y-87697195D01*
X149656879Y-87711575D01*
X149651918Y-87716266D01*
X149649795Y-87717878D01*
X149648913Y-87718491D01*
X149645045Y-87721417D01*
X149640676Y-87724189D01*
X149636523Y-87727902D01*
X149583994Y-87780431D01*
X149581473Y-87782883D01*
X149524983Y-87836303D01*
X149521145Y-87841951D01*
X149516822Y-87847030D01*
X149509963Y-87854462D01*
X148293474Y-89070950D01*
X148255630Y-89096960D01*
X148177270Y-89131849D01*
X148024129Y-89243112D01*
X148019716Y-89248014D01*
X148019714Y-89248015D01*
X147940038Y-89336504D01*
X147897467Y-89383784D01*
X147894164Y-89389505D01*
X147810197Y-89534941D01*
X147802821Y-89547716D01*
X147744326Y-89727744D01*
X147743636Y-89734305D01*
X147743636Y-89734307D01*
X147734215Y-89823948D01*
X147724540Y-89916000D01*
X147725230Y-89922565D01*
X147740526Y-90068096D01*
X147744326Y-90104256D01*
X147761797Y-90158026D01*
X147788333Y-90239695D01*
X147794500Y-90278631D01*
X147794500Y-96186878D01*
X147792808Y-96207457D01*
X147790883Y-96219086D01*
X147791240Y-96225902D01*
X147791240Y-96225906D01*
X147794327Y-96284798D01*
X147794500Y-96291393D01*
X147794500Y-96311354D01*
X147796478Y-96329558D01*
X147797039Y-96336541D01*
X147800384Y-96400368D01*
X147802196Y-96406946D01*
X147802196Y-96406947D01*
X147803942Y-96413285D01*
X147807730Y-96433141D01*
X147808440Y-96439682D01*
X147808441Y-96439687D01*
X147809178Y-96446469D01*
X147811355Y-96452936D01*
X147811356Y-96452943D01*
X147829565Y-96507048D01*
X147831623Y-96513779D01*
X147846778Y-96568802D01*
X147846780Y-96568807D01*
X147848591Y-96575382D01*
X147851774Y-96581420D01*
X147851775Y-96581422D01*
X147854842Y-96587240D01*
X147862801Y-96605808D01*
X147867079Y-96618519D01*
X147881678Y-96642815D01*
X147899993Y-96673297D01*
X147903444Y-96679422D01*
X147933254Y-96735961D01*
X147941215Y-96745381D01*
X147941911Y-96746205D01*
X147953673Y-96762634D01*
X147960575Y-96774121D01*
X148004486Y-96820556D01*
X148009161Y-96825785D01*
X148050425Y-96874614D01*
X148061083Y-96882763D01*
X148076097Y-96896282D01*
X148085303Y-96906017D01*
X148090944Y-96909851D01*
X148090948Y-96909854D01*
X148138153Y-96941935D01*
X148143857Y-96946049D01*
X148189214Y-96980727D01*
X148189223Y-96980732D01*
X148194636Y-96984871D01*
X148200817Y-96987753D01*
X148200818Y-96987754D01*
X148206780Y-96990534D01*
X148224351Y-97000515D01*
X148235443Y-97008053D01*
X148241776Y-97010586D01*
X148294776Y-97031785D01*
X148301232Y-97034579D01*
X148352971Y-97058705D01*
X148352975Y-97058706D01*
X148359159Y-97061590D01*
X148372248Y-97064516D01*
X148391542Y-97070489D01*
X148397657Y-97072935D01*
X148397667Y-97072938D01*
X148403993Y-97075468D01*
X148410717Y-97076581D01*
X148410720Y-97076582D01*
X148446313Y-97082474D01*
X148467061Y-97085909D01*
X148473941Y-97087246D01*
X148519854Y-97097509D01*
X148531271Y-97100061D01*
X148531273Y-97100061D01*
X148536318Y-97101189D01*
X148541880Y-97101500D01*
X148550878Y-97101500D01*
X148571457Y-97103192D01*
X148576348Y-97104002D01*
X148576353Y-97104002D01*
X148583086Y-97105117D01*
X148589902Y-97104760D01*
X148589906Y-97104760D01*
X148648798Y-97101673D01*
X148655393Y-97101500D01*
X151089248Y-97101500D01*
X151150718Y-97117512D01*
X151202608Y-97146512D01*
X151252314Y-97197205D01*
X151266723Y-97266724D01*
X151241259Y-97332997D01*
X151184008Y-97374983D01*
X151141138Y-97382500D01*
X141346300Y-97382500D01*
X141286371Y-97367336D01*
X141242282Y-97343497D01*
X141145585Y-97291213D01*
X141036601Y-97257477D01*
X140964039Y-97235015D01*
X140964036Y-97235014D01*
X140958152Y-97233193D01*
X140952027Y-97232549D01*
X140952026Y-97232549D01*
X140769147Y-97213327D01*
X140769146Y-97213327D01*
X140763019Y-97212683D01*
X140640383Y-97223844D01*
X140573759Y-97229907D01*
X140573758Y-97229907D01*
X140567618Y-97230466D01*
X140561704Y-97232207D01*
X140561702Y-97232207D01*
X140508420Y-97247889D01*
X140379393Y-97285864D01*
X140373928Y-97288721D01*
X140210972Y-97373912D01*
X140210968Y-97373915D01*
X140205512Y-97376767D01*
X140200712Y-97380627D01*
X140200711Y-97380627D01*
X140194342Y-97385748D01*
X140052600Y-97499711D01*
X139926480Y-97650016D01*
X139923516Y-97655408D01*
X139923513Y-97655412D01*
X139896324Y-97704869D01*
X139831956Y-97821954D01*
X139830095Y-97827821D01*
X139830094Y-97827823D01*
X139776888Y-97995548D01*
X139745881Y-98046544D01*
X137572829Y-100219595D01*
X137510517Y-100253621D01*
X137483734Y-100256500D01*
X131651876Y-100256500D01*
X131583755Y-100236498D01*
X131562781Y-100219595D01*
X131435139Y-100091953D01*
X131248734Y-99961432D01*
X131243756Y-99959111D01*
X131243753Y-99959109D01*
X131047478Y-99867584D01*
X131047476Y-99867583D01*
X131042496Y-99865261D01*
X131037188Y-99863839D01*
X131037186Y-99863838D01*
X130828007Y-99807789D01*
X130828005Y-99807789D01*
X130822692Y-99806365D01*
X130596000Y-99786532D01*
X130590525Y-99787011D01*
X130590523Y-99787011D01*
X130540602Y-99791378D01*
X130470998Y-99777388D01*
X130440527Y-99754952D01*
X128674405Y-97988829D01*
X128640379Y-97926517D01*
X128637500Y-97899734D01*
X128637500Y-89806265D01*
X128657502Y-89738144D01*
X128674405Y-89717170D01*
X130440527Y-87951048D01*
X130502839Y-87917022D01*
X130540602Y-87914622D01*
X130590523Y-87918989D01*
X130590525Y-87918989D01*
X130596000Y-87919468D01*
X130822692Y-87899635D01*
X130828005Y-87898211D01*
X130828007Y-87898211D01*
X131037186Y-87842162D01*
X131037188Y-87842161D01*
X131042496Y-87840739D01*
X131089527Y-87818808D01*
X131243753Y-87746891D01*
X131243756Y-87746889D01*
X131248734Y-87744568D01*
X131435139Y-87614047D01*
X131596047Y-87453139D01*
X131726568Y-87266734D01*
X131822739Y-87060496D01*
X131881635Y-86840692D01*
X131901468Y-86614000D01*
X131881635Y-86387308D01*
X131822739Y-86167504D01*
X131726568Y-85961266D01*
X131596047Y-85774861D01*
X131435139Y-85613953D01*
X131248734Y-85483432D01*
X131243756Y-85481111D01*
X131243753Y-85481109D01*
X131047478Y-85389584D01*
X131047476Y-85389583D01*
X131042496Y-85387261D01*
X131037188Y-85385839D01*
X131037186Y-85385838D01*
X130828007Y-85329789D01*
X130828005Y-85329789D01*
X130822692Y-85328365D01*
X130596000Y-85308532D01*
X130369308Y-85328365D01*
X130363995Y-85329789D01*
X130363993Y-85329789D01*
X130154814Y-85385838D01*
X130154812Y-85385839D01*
X130149504Y-85387261D01*
X130144524Y-85389583D01*
X130144522Y-85389584D01*
X129948247Y-85481109D01*
X129948244Y-85481111D01*
X129943266Y-85483432D01*
X129756861Y-85613953D01*
X129595953Y-85774861D01*
X129465432Y-85961266D01*
X129369261Y-86167504D01*
X129310365Y-86387308D01*
X129290532Y-86614000D01*
X129291011Y-86619475D01*
X129291011Y-86619477D01*
X129295378Y-86669398D01*
X129281388Y-86739002D01*
X129258952Y-86769473D01*
X128248363Y-87780061D01*
X127239808Y-88788616D01*
X127232042Y-88795758D01*
X127193386Y-88828425D01*
X127189243Y-88833844D01*
X127189241Y-88833846D01*
X127145400Y-88891187D01*
X127143501Y-88893608D01*
X127098260Y-88949877D01*
X127098255Y-88949885D01*
X127093980Y-88955202D01*
X127090945Y-88961315D01*
X127089495Y-88963583D01*
X127089195Y-88964012D01*
X127088916Y-88964460D01*
X127088658Y-88964929D01*
X127087274Y-88967214D01*
X127083129Y-88972636D01*
X127080245Y-88978821D01*
X127049737Y-89044243D01*
X127048403Y-89047015D01*
X127013265Y-89117802D01*
X127011614Y-89124425D01*
X127010692Y-89126930D01*
X127010486Y-89127426D01*
X127010306Y-89127934D01*
X127010160Y-89128430D01*
X127009293Y-89130976D01*
X127006410Y-89137159D01*
X127004923Y-89143813D01*
X127004922Y-89143815D01*
X126989169Y-89214293D01*
X126988460Y-89217290D01*
X126971000Y-89287317D01*
X126970999Y-89287322D01*
X126969349Y-89293941D01*
X126969159Y-89300761D01*
X126968795Y-89303415D01*
X126968603Y-89304480D01*
X126967938Y-89309277D01*
X126966811Y-89314318D01*
X126966500Y-89319880D01*
X126966500Y-89394186D01*
X126966451Y-89397704D01*
X126964281Y-89475401D01*
X126965560Y-89482108D01*
X126966094Y-89488741D01*
X126966500Y-89498848D01*
X126966500Y-98257569D01*
X126966058Y-98268111D01*
X126961824Y-98318534D01*
X124900110Y-98318534D01*
X124570405Y-97988829D01*
X124536379Y-97926517D01*
X124533500Y-97899734D01*
X124533500Y-91519122D01*
X124535192Y-91498543D01*
X124536002Y-91493652D01*
X124536002Y-91493647D01*
X124537117Y-91486914D01*
X124533673Y-91421202D01*
X124533500Y-91414607D01*
X124533500Y-91394646D01*
X124531522Y-91376442D01*
X124530960Y-91369446D01*
X124527973Y-91312446D01*
X124527616Y-91305632D01*
X124524058Y-91292713D01*
X124520270Y-91272859D01*
X124519560Y-91266318D01*
X124519559Y-91266313D01*
X124518822Y-91259531D01*
X124516645Y-91253064D01*
X124516644Y-91253057D01*
X124498435Y-91198952D01*
X124496377Y-91192221D01*
X124481222Y-91137198D01*
X124481220Y-91137193D01*
X124479409Y-91130618D01*
X124476225Y-91124578D01*
X124473158Y-91118760D01*
X124465199Y-91100192D01*
X124460921Y-91087481D01*
X124428004Y-91032698D01*
X124424553Y-91026573D01*
X124409917Y-90998814D01*
X124394746Y-90970039D01*
X124386089Y-90959795D01*
X124374327Y-90943366D01*
X124370940Y-90937729D01*
X124367425Y-90931879D01*
X124323514Y-90885444D01*
X124318839Y-90880215D01*
X124281980Y-90836599D01*
X124277575Y-90831386D01*
X124266917Y-90823237D01*
X124251901Y-90809716D01*
X124247386Y-90804941D01*
X124247384Y-90804940D01*
X124242697Y-90799983D01*
X124237056Y-90796149D01*
X124237052Y-90796146D01*
X124189847Y-90764065D01*
X124184143Y-90759951D01*
X124138786Y-90725273D01*
X124138777Y-90725268D01*
X124133364Y-90721129D01*
X124121220Y-90715466D01*
X124103649Y-90705485D01*
X124098197Y-90701780D01*
X124098198Y-90701780D01*
X124092557Y-90697947D01*
X124080522Y-90693133D01*
X124033224Y-90674215D01*
X124026768Y-90671421D01*
X123975029Y-90647295D01*
X123975025Y-90647294D01*
X123968841Y-90644410D01*
X123955752Y-90641484D01*
X123936458Y-90635511D01*
X123930343Y-90633065D01*
X123930333Y-90633062D01*
X123924007Y-90630532D01*
X123917283Y-90629419D01*
X123917280Y-90629418D01*
X123881687Y-90623526D01*
X123860939Y-90620091D01*
X123854059Y-90618754D01*
X123808146Y-90608491D01*
X123796729Y-90605939D01*
X123796727Y-90605939D01*
X123791682Y-90604811D01*
X123786120Y-90604500D01*
X123777122Y-90604500D01*
X123756543Y-90602808D01*
X123751652Y-90601998D01*
X123751647Y-90601998D01*
X123744914Y-90600883D01*
X123738098Y-90601240D01*
X123738094Y-90601240D01*
X123679202Y-90604327D01*
X123672607Y-90604500D01*
X121491876Y-90604500D01*
X121423755Y-90584498D01*
X121402781Y-90567595D01*
X121308405Y-90473219D01*
X121274379Y-90410907D01*
X121271500Y-90384124D01*
X121271500Y-88040500D01*
X121291502Y-87972379D01*
X121345158Y-87925886D01*
X121397500Y-87914500D01*
X121555748Y-87914500D01*
X121580880Y-87909501D01*
X121602061Y-87905288D01*
X121602062Y-87905288D01*
X121614231Y-87902867D01*
X121680552Y-87858552D01*
X121724867Y-87792231D01*
X121727778Y-87777599D01*
X121735293Y-87739816D01*
X121736500Y-87733748D01*
X121736500Y-85494252D01*
X121724867Y-85435769D01*
X121680552Y-85369448D01*
X121614231Y-85325133D01*
X121602062Y-85322712D01*
X121602061Y-85322712D01*
X121561816Y-85314707D01*
X121555748Y-85313500D01*
X119316252Y-85313500D01*
X119310184Y-85314707D01*
X119269939Y-85322712D01*
X119269938Y-85322712D01*
X119257769Y-85325133D01*
X119191448Y-85369448D01*
X119147133Y-85435769D01*
X119135500Y-85494252D01*
X119135500Y-87733748D01*
X119136707Y-87739816D01*
X119144223Y-87777599D01*
X119147133Y-87792231D01*
X119191448Y-87858552D01*
X119257769Y-87902867D01*
X119269938Y-87905288D01*
X119269939Y-87905288D01*
X119291120Y-87909501D01*
X119316252Y-87914500D01*
X119474500Y-87914500D01*
X119542621Y-87934502D01*
X119589114Y-87988158D01*
X119600500Y-88040500D01*
X119600500Y-90384124D01*
X119580498Y-90452245D01*
X119563595Y-90473219D01*
X119435953Y-90600861D01*
X119305432Y-90787266D01*
X119303111Y-90792244D01*
X119303109Y-90792247D01*
X119224980Y-90959795D01*
X119209261Y-90993504D01*
X119207839Y-90998812D01*
X119207838Y-90998814D01*
X119156015Y-91192221D01*
X119150365Y-91213308D01*
X119130532Y-91440000D01*
X113579000Y-91440000D01*
X113579000Y-81026000D01*
X116032341Y-81026000D01*
X116052937Y-81261408D01*
X116114097Y-81489663D01*
X116213965Y-81703829D01*
X116349505Y-81897401D01*
X116516599Y-82064495D01*
X116710171Y-82200035D01*
X116715149Y-82202356D01*
X116715152Y-82202358D01*
X116919355Y-82297580D01*
X116924337Y-82299903D01*
X116929645Y-82301325D01*
X116929647Y-82301326D01*
X117147277Y-82359639D01*
X117152592Y-82361063D01*
X117255682Y-82370082D01*
X117326310Y-82376262D01*
X117326317Y-82376262D01*
X117329034Y-82376500D01*
X117446966Y-82376500D01*
X117449683Y-82376262D01*
X117449690Y-82376262D01*
X117520318Y-82370082D01*
X117623408Y-82361063D01*
X117628723Y-82359639D01*
X117846353Y-82301326D01*
X117846355Y-82301325D01*
X117851663Y-82299903D01*
X117856645Y-82297580D01*
X118060848Y-82202358D01*
X118060851Y-82202356D01*
X118065829Y-82200035D01*
X118259401Y-82064495D01*
X118426495Y-81897401D01*
X118429655Y-81892889D01*
X118558878Y-81708339D01*
X118558881Y-81708334D01*
X118562035Y-81703830D01*
X118564358Y-81698848D01*
X118564361Y-81698843D01*
X118659580Y-81494645D01*
X118659581Y-81494644D01*
X118661903Y-81489663D01*
X118723063Y-81261408D01*
X118743659Y-81026000D01*
X165562341Y-81026000D01*
X165582937Y-81261408D01*
X165644097Y-81489663D01*
X165743965Y-81703829D01*
X165879505Y-81897401D01*
X166046599Y-82064495D01*
X166240171Y-82200035D01*
X166245149Y-82202356D01*
X166245152Y-82202358D01*
X166449355Y-82297580D01*
X166454337Y-82299903D01*
X166459645Y-82301325D01*
X166459647Y-82301326D01*
X166677277Y-82359639D01*
X166682592Y-82361063D01*
X166785682Y-82370082D01*
X166856310Y-82376262D01*
X166856317Y-82376262D01*
X166859034Y-82376500D01*
X166976966Y-82376500D01*
X166979683Y-82376262D01*
X166979690Y-82376262D01*
X167050318Y-82370082D01*
X167153408Y-82361063D01*
X167158723Y-82359639D01*
X167376353Y-82301326D01*
X167376355Y-82301325D01*
X167381663Y-82299903D01*
X167386645Y-82297580D01*
X167590848Y-82202358D01*
X167590851Y-82202356D01*
X167595829Y-82200035D01*
X167789401Y-82064495D01*
X167956495Y-81897401D01*
X167959655Y-81892889D01*
X168088878Y-81708339D01*
X168088881Y-81708334D01*
X168092035Y-81703830D01*
X168094358Y-81698848D01*
X168094361Y-81698843D01*
X168189580Y-81494645D01*
X168189581Y-81494644D01*
X168191903Y-81489663D01*
X168253063Y-81261408D01*
X168273659Y-81026000D01*
X168253063Y-80790592D01*
X168191903Y-80562337D01*
X168092035Y-80348171D01*
X167956495Y-80154599D01*
X167789401Y-79987505D01*
X167595829Y-79851965D01*
X167590851Y-79849644D01*
X167590848Y-79849642D01*
X167386645Y-79754420D01*
X167386643Y-79754419D01*
X167381663Y-79752097D01*
X167376355Y-79750675D01*
X167376353Y-79750674D01*
X167158723Y-79692361D01*
X167158722Y-79692361D01*
X167153408Y-79690937D01*
X167050318Y-79681918D01*
X166979690Y-79675738D01*
X166979683Y-79675738D01*
X166976966Y-79675500D01*
X166859034Y-79675500D01*
X166856317Y-79675738D01*
X166856310Y-79675738D01*
X166785682Y-79681918D01*
X166682592Y-79690937D01*
X166677278Y-79692361D01*
X166677277Y-79692361D01*
X166459647Y-79750674D01*
X166459645Y-79750675D01*
X166454337Y-79752097D01*
X166449357Y-79754419D01*
X166449355Y-79754420D01*
X166245152Y-79849642D01*
X166245149Y-79849644D01*
X166240171Y-79851965D01*
X166046599Y-79987505D01*
X165879505Y-80154599D01*
X165876348Y-80159107D01*
X165876346Y-80159110D01*
X165747122Y-80343661D01*
X165743965Y-80348170D01*
X165741642Y-80353152D01*
X165741639Y-80353157D01*
X165646420Y-80557355D01*
X165644097Y-80562337D01*
X165582937Y-80790592D01*
X165562341Y-81026000D01*
X118743659Y-81026000D01*
X118723063Y-80790592D01*
X118661903Y-80562337D01*
X118562035Y-80348171D01*
X118426495Y-80154599D01*
X118259401Y-79987505D01*
X118065829Y-79851965D01*
X118060851Y-79849644D01*
X118060848Y-79849642D01*
X117856645Y-79754420D01*
X117856643Y-79754419D01*
X117851663Y-79752097D01*
X117846355Y-79750675D01*
X117846353Y-79750674D01*
X117628723Y-79692361D01*
X117628722Y-79692361D01*
X117623408Y-79690937D01*
X117520318Y-79681918D01*
X117449690Y-79675738D01*
X117449683Y-79675738D01*
X117446966Y-79675500D01*
X117329034Y-79675500D01*
X117326317Y-79675738D01*
X117326310Y-79675738D01*
X117255682Y-79681918D01*
X117152592Y-79690937D01*
X117147278Y-79692361D01*
X117147277Y-79692361D01*
X116929647Y-79750674D01*
X116929645Y-79750675D01*
X116924337Y-79752097D01*
X116919357Y-79754419D01*
X116919355Y-79754420D01*
X116715152Y-79849642D01*
X116715149Y-79849644D01*
X116710171Y-79851965D01*
X116516599Y-79987505D01*
X116349505Y-80154599D01*
X116346348Y-80159107D01*
X116346346Y-80159110D01*
X116217122Y-80343661D01*
X116213965Y-80348170D01*
X116211642Y-80353152D01*
X116211639Y-80353157D01*
X116116420Y-80557355D01*
X116114097Y-80562337D01*
X116052937Y-80790592D01*
X116032341Y-81026000D01*
X113579000Y-81026000D01*
X113579000Y-77343000D01*
X113599002Y-77274879D01*
X113652658Y-77228386D01*
X113705000Y-77217000D01*
X170601000Y-77217000D01*
X170669121Y-77237002D01*
G37*
G04 #@! TD.AperFunction*
M02*
