M48
; DRILL file {KiCad (6.0.10)} date Sat Jan  7 11:35:49 2023
; FORMAT={-:-/ absolute / inch / decimal}
; #@! TF.CreationDate,2023-01-07T11:35:49+08:00
; #@! TF.GenerationSoftware,Kicad,Pcbnew,(6.0.10)
; #@! TF.FileFunction,Plated,1,2,PTH
FMAT,2
INCH
; #@! TA.AperFunction,Plated,PTH,ComponentDrill
T1C0.0276
; #@! TA.AperFunction,Plated,PTH,ComponentDrill
T2C0.0315
; #@! TA.AperFunction,Plated,PTH,ComponentDrill
T3C0.0433
; #@! TA.AperFunction,Plated,PTH,ComponentDrill
T4C0.0472
; #@! TA.AperFunction,Plated,PTH,ComponentDrill
T5C0.0488
; #@! TA.AperFunction,Plated,PTH,ComponentDrill
T6C0.0512
%
G90
G05
T1
X5.8516Y-3.54
X6.0516Y-3.54
T2
X5.5416Y-3.67
X5.5416Y-3.8669
X5.9716Y-3.79
X5.9716Y-3.8687
T3
X4.7416Y-3.41
X4.7416Y-3.6
X4.7416Y-3.79
X4.7416Y-3.98
X5.1416Y-3.41
X5.1416Y-3.6
X5.1416Y-3.79
X5.1416Y-3.98
T4
X5.4216Y-4.32
X5.6184Y-4.32
X5.8153Y-4.32
T5
X6.3116Y-3.59
X6.3116Y-3.69
X6.3116Y-3.79
T6
X4.8531Y-4.24
X5.05Y-4.24
X6.1831Y-4.23
X6.38Y-4.23
T0
M30
